<svg width="16" height="16" viewBox="0 0 16 16" fill="none" xmlns="http://www.w3.org/2000/svg">
<path d="M6.99478 1.50823C7.36343 0.771656 8.41462 0.771657 8.78328 1.50824L10.376 4.69051C10.5227 4.9837 10.8039 5.18633 11.1284 5.23284L14.6665 5.73979C15.491 5.85794 15.8182 6.87339 15.2176 7.45064L12.6754 9.89419C12.4357 10.1246 12.3262 10.459 12.3832 10.7865L12.9858 14.2509C13.1275 15.0659 12.2747 15.6908 11.5403 15.31L8.34927 13.6557C8.06068 13.5061 7.71737 13.5061 7.42878 13.6557L4.23775 15.31C3.50331 15.6908 2.65054 15.0659 2.7923 14.2509L3.39487 10.7865C3.45184 10.459 3.34232 10.1246 3.10264 9.89419L0.560442 7.45064C-0.040108 6.87339 0.287014 5.85794 1.11158 5.73979L4.64966 5.23284C4.9742 5.18633 5.25533 4.9837 5.40207 4.69051L6.99478 1.50823Z" fill="#2B2B2B"/>
</svg>
