<svg width="16" height="16" viewBox="0 0 16 16" fill="none" xmlns="http://www.w3.org/2000/svg">
<path d="M7.43923 1.50823C7.80789 0.771656 8.85908 0.771657 9.22773 1.50824L10.8204 4.69051C10.9672 4.9837 11.2483 5.18633 11.5729 5.23284L15.1109 5.73979C15.9355 5.85794 16.2626 6.87339 15.6621 7.45064L13.1199 9.89419C12.8802 10.1246 12.7707 10.459 12.8276 10.7865L13.4302 14.2509C13.572 15.0659 12.7192 15.6908 11.9848 15.31L8.79373 13.6557C8.50514 13.5061 8.16183 13.5061 7.87324 13.6557L4.68221 15.31C3.94777 15.6908 3.095 15.0659 3.23676 14.2509L3.83933 10.7865C3.89629 10.459 3.78677 10.1246 3.5471 9.89419L1.0049 7.45064C0.40435 6.87339 0.731472 5.85794 1.55604 5.73979L5.09411 5.23284C5.41865 5.18633 5.69979 4.9837 5.84653 4.69051L7.43923 1.50823Z" fill="#2B2B2B"/>
</svg>
