<svg width="51" height="51" viewBox="0 0 51 51" fill="none" xmlns="http://www.w3.org/2000/svg">
<path d="M39.8958 45.3335C42.9161 45.3335 45.3646 42.8851 45.3646 39.8647C45.3646 36.8444 42.9161 34.396 39.8958 34.396C36.8755 34.396 34.4271 36.8444 34.4271 39.8647C34.4271 42.8851 36.8755 45.3335 39.8958 45.3335Z" stroke="white" stroke-width="5" stroke-linecap="round" stroke-linejoin="round"/>
<path d="M11.7708 45.3335C14.7911 45.3335 17.2396 42.8851 17.2396 39.8647C17.2396 36.8444 14.7911 34.396 11.7708 34.396C8.75051 34.396 6.30206 36.8444 6.30206 39.8647C6.30206 42.8851 8.75051 45.3335 11.7708 45.3335Z" stroke="white" stroke-width="5" stroke-linecap="round" stroke-linejoin="round"/>
<path d="M11.7708 17.2085C14.7911 17.2085 17.2396 14.7601 17.2396 11.7397C17.2396 8.71944 14.7911 6.271 11.7708 6.271C8.75051 6.271 6.30206 8.71944 6.30206 11.7397C6.30206 14.7601 8.75051 17.2085 11.7708 17.2085Z" stroke="white" stroke-width="5" stroke-linecap="round" stroke-linejoin="round"/>
<path d="M29.7396 6.271L25.0521 12.521L29.7396 18.771M39.1146 32.8335V17.2085C39.1146 14.0835 37.5521 12.521 34.4271 12.521H28.1771M12.5521 18.771V32.8335" stroke="white" stroke-width="5" stroke-linecap="round" stroke-linejoin="round"/>
</svg>
