<svg width="160" height="41" viewBox="0 0 160 41" fill="none" xmlns="http://www.w3.org/2000/svg">
<g clip-path="url(#clip0_152_70)">
<path d="M43.9992 10.4999L43.9421 10.5189V19.033H35.866V10.5189L35.8089 10.4999C34.6089 10.2522 33.428 10.2522 32.2471 10.4999L32.1899 10.5189V30.0995L32.2471 30.1185C32.8375 30.2328 33.428 30.309 34.0184 30.309C34.6089 30.309 35.1994 30.2518 35.8089 30.1185L35.866 30.0995V22.1568H43.9421V30.0995L43.9992 30.1185C45.1802 30.3661 46.3801 30.3661 47.5611 30.1185L47.6182 30.0995V10.5189L47.5611 10.4999C46.3611 10.2713 45.1802 10.2713 43.9992 10.4999ZM56.5133 16.0045C52.2847 16.0045 49.7705 18.6711 49.7705 23.1473C49.7705 25.471 50.3039 27.3186 51.3705 28.5948C52.5324 29.9852 54.2657 30.69 56.5704 30.69C60.4751 30.69 62.4751 28.3661 62.7227 26.0615V26.0043L62.6655 25.9853C61.6751 25.6615 60.7608 25.5853 59.6751 25.7377H59.637V25.7757C59.4084 27.1472 58.2656 27.9662 56.6085 27.9662C54.2847 27.9662 53.1419 26.6901 53.1038 24.0615H62.9322V24.0044C63.2179 21.4139 62.7036 19.3187 61.4465 17.8902C60.2847 16.6712 58.5895 16.0045 56.5133 16.0045ZM56.4751 18.5378C57.4466 18.5378 58.2656 18.8425 58.818 19.433C59.3894 20.0425 59.6751 20.9568 59.6179 22.0425H53.1038C53.161 19.814 54.3991 18.5378 56.4751 18.5378ZM65.3131 10.4999L65.2559 10.5189V30.0995L65.3131 30.1185C65.8655 30.2328 66.4179 30.309 66.9893 30.309C67.5416 30.309 68.1131 30.2518 68.6655 30.1185L68.7226 30.0995V10.5189L68.6655 10.4999C67.5607 10.2522 66.4369 10.2713 65.3131 10.4999ZM78.3605 16.0045C76.8939 16.0045 75.351 16.5759 73.8843 17.6616L73.6748 16.6331L73.6367 16.6141C72.7987 16.3664 72.113 16.3664 71.2939 16.6141L71.2559 16.6331V36.1184L71.313 36.1375C71.8654 36.2517 72.4177 36.3279 72.9891 36.3279C73.5606 36.3279 74.1129 36.2708 74.6653 36.1375L74.7224 36.1184V29.6042C75.8843 30.3471 77.1224 30.69 78.5128 30.69C82.36 30.69 84.6648 27.9662 84.6648 23.3758C84.6464 18.7092 82.36 16.0045 78.3605 16.0045ZM74.6653 19.8711C75.6939 19.1664 76.6463 18.8425 77.6747 18.8425C80.0176 18.8425 81.2936 20.4616 81.2936 23.4329C81.2936 26.3472 80.0368 27.89 77.6367 27.89C76.6081 27.89 75.6367 27.5662 74.6653 26.8805V19.8711ZM99.3504 19.5664C98.76 19.3377 98.2264 19.1473 97.7128 18.9759C95.0456 18.0235 93.4456 17.4521 93.408 16.0045C93.3888 15.3378 93.5984 14.7665 94.0552 14.2902C94.7224 13.6045 95.8456 13.2426 97.2176 13.2426C98.5696 13.2426 99.6176 13.6045 100.246 14.2712C100.779 14.8426 101.008 15.6236 100.95 16.5949V16.6521L101.008 16.6712C102.17 16.8997 103.331 16.8807 104.589 16.5949L104.646 16.5759V16.5188C104.722 14.8807 104.226 13.4521 103.217 12.3855C101.96 11.0522 99.9408 10.3475 97.3888 10.3284H97.3128C92.5696 10.3284 89.7128 12.4427 89.6744 15.9855C89.6552 19.5092 92.8936 20.6901 94.836 21.3758L95.1224 21.4901C95.7696 21.7187 96.3792 21.9282 96.9128 22.1187C99.5408 23.0329 101.122 23.5853 101.179 24.9757C101.198 25.6996 100.989 26.2901 100.55 26.7472C99.9216 27.3948 98.8176 27.7185 97.3504 27.6995C95.7312 27.6995 94.4936 27.2805 93.7888 26.5186C93.2744 25.9472 93.0648 25.2234 93.1408 24.3472V24.2901L93.084 24.271C91.9032 24.0425 90.7032 24.0615 89.5224 24.3281L89.484 24.3472V24.4044C89.3888 25.9853 89.8648 27.3948 90.8936 28.4805C92.2648 29.9471 94.5128 30.709 97.408 30.69C100.246 30.69 104.912 29.9281 104.95 24.9757C104.894 21.6806 102.074 20.614 99.3504 19.5664ZM113.465 18.8425C115.807 18.8425 116.36 20.3663 116.474 21.2616V21.3187H116.531C117.617 21.4901 118.646 21.4139 119.636 21.1282L119.693 21.1092V21.0521C119.598 19.6806 119.007 18.4425 118.036 17.5473C116.931 16.5378 115.35 15.9855 113.484 15.9855C109.026 15.9855 106.57 18.5949 106.57 23.3377C106.57 28.0614 109.007 30.6709 113.426 30.6709C115.331 30.6709 116.931 30.1185 118.055 29.0709C118.988 28.1948 119.56 27.0138 119.674 25.7377V25.6805L119.617 25.6615C118.683 25.3377 117.655 25.2805 116.531 25.471H116.493V25.5091C116.188 27.6424 114.112 27.7948 113.484 27.7948C111.084 27.7948 109.96 26.3662 109.96 23.2996C109.941 20.2711 111.065 18.8425 113.465 18.8425ZM128.131 16.0045C123.75 16.0045 121.331 18.614 121.331 23.3568C121.331 28.0805 123.75 30.69 128.131 30.69C132.512 30.69 134.931 28.0805 134.931 23.3568C134.931 18.614 132.512 16.0045 128.131 16.0045ZM131.617 23.3758C131.617 26.4043 130.474 27.8709 128.131 27.8709C125.788 27.8709 124.646 26.4043 124.646 23.3758C124.646 20.2901 125.75 18.8425 128.131 18.8425C130.474 18.8425 131.617 20.3282 131.617 23.3758ZM145.902 16.6331L145.845 16.6521V26.4043C144.74 27.3567 143.73 27.7757 142.569 27.7757C140.93 27.7757 140.226 26.8424 140.226 24.6329V16.6331L140.169 16.6141C139.064 16.3473 137.94 16.3473 136.817 16.6141L136.759 16.6331V25.4138C136.759 28.7471 138.55 30.6709 141.693 30.6709C143.369 30.6709 144.835 30.0233 146.416 28.5757L146.74 30.0995L146.778 30.1185C147.578 30.3281 148.416 30.3281 149.216 30.1185L149.274 30.0995V16.6331L149.216 16.6141C148.15 16.3473 147.026 16.3473 145.902 16.6331ZM159.826 27.49L159.806 27.4329L159.75 27.4519C158.416 27.7567 157.635 27.7376 157.178 27.3757C156.797 27.0709 156.626 26.5377 156.626 25.6996V19.4521H159.33L159.35 19.3949C159.54 18.4806 159.54 17.5473 159.35 16.6141L159.33 16.5569H156.626V12.8617L156.569 12.8427C155.464 12.595 154.34 12.595 153.235 12.8427L153.178 12.8617L153.197 16.5569H151.483L151.464 16.6141C151.254 17.5283 151.254 18.4806 151.464 19.3949L151.483 19.4521H153.197L153.216 25.452C153.216 27.1281 153.311 28.8233 154.474 29.7947C155.102 30.309 156.016 30.5757 157.197 30.5757C157.921 30.5757 158.759 30.4805 159.73 30.29H159.769L159.787 30.2518C160.054 29.3566 160.074 28.4233 159.826 27.49Z" fill="white"/>
<path d="M1.88568 23.0139L11.1426 13.757C12.3426 12.576 13.0854 10.9189 13.0854 9.10944C13.0854 7.31899 12.3617 5.68093 11.1998 4.5L1.94282 13.757C0.742843 14.9379 0 16.595 0 18.4045C0 20.214 0.723796 21.833 1.88568 23.0139ZM24.3043 17.6045L15.0474 26.8615C13.8474 28.0424 13.1045 29.6995 13.1045 31.509C13.1045 33.2994 13.8283 34.9375 14.9902 36.1185L24.2472 26.8615C25.4471 25.6806 26.19 24.0234 26.19 22.2139C26.19 20.4045 25.4662 18.7854 24.3043 17.6045ZM24.2472 13.776C25.4471 12.5951 26.19 10.938 26.19 9.12848C26.19 7.33804 25.4662 5.69998 24.3043 4.51905L1.94282 26.8615C0.742843 28.0614 0 29.6995 0 31.5281C0 33.3185 0.723796 34.9566 1.88568 36.1375L24.2472 13.776Z" fill="white"/>
</g>
<defs>
<clipPath id="clip0_152_70">
<rect width="160" height="40" fill="white" transform="translate(0 0.5)"/>
</clipPath>
</defs>
</svg>
