<svg width="121" height="53" viewBox="0 0 121 53" fill="none" xmlns="http://www.w3.org/2000/svg">
<g clip-path="url(#clip0_152_66)">
<path d="M0.5 28.1756C0.5 19.3758 7.43066 13.1017 17.2872 13.1017C20.2126 13.1017 23.4055 13.6467 25.1967 14.4591V19.9545H24.9962L18.1434 15.0488C17.7898 14.9261 17.0521 14.8468 16.3527 14.8468C11.1685 14.8468 7.50812 19.6764 7.50812 26.3401C7.50812 33.7826 12.0694 39.5781 17.8654 39.5781C18.258 39.5716 18.6492 39.5307 19.0347 39.456L18.9231 39.4098V27.052L17.1655 24.9049V24.7048H27.4103V24.9049L25.6527 27.052V41.4252H25.4526L21.0135 40.0567C19.3007 40.9134 16.6528 41.5363 14.2723 41.5363C6.10696 41.5363 0.5 36.1183 0.5 28.1756ZM32.1495 24.4042L30.0803 22.3354V22.1777L37.4448 20.2324H37.834L38.1106 24.4042H38.3439C40.024 21.445 41.5035 20.2324 43.3722 20.2324C44.151 20.2324 44.8186 20.4662 45.1635 20.7779V27.0852H44.9634L41.0272 24.4369C40.9102 24.4123 40.7908 24.401 40.6713 24.4032C39.8594 24.4032 38.6911 25.182 38.3019 26.1165V38.8879L40.3592 40.7584V40.9585H30.3919V40.7584L32.1495 38.8893V24.4042ZM46.8339 40.9465V40.7907L48.5914 38.8773V24.4042L46.5226 22.3797V22.1777L54.3543 20.2306H54.7434V38.8884L56.5014 40.8018V40.9576H46.8339V40.9465ZM48.312 14.0473C48.312 12.1339 49.603 10.9656 51.6607 10.9656C53.7184 10.9656 55.0089 12.1339 55.0089 14.0473C55.0089 15.9165 53.73 17.0844 51.6607 17.0844C49.5915 17.0844 48.312 15.9165 48.312 14.0473ZM59.3604 40.9465V40.7464L61.118 38.8773V23.0362H58.3479V22.8804L61.151 20.4662C62.0078 14.815 65.4788 10.9656 69.7172 10.9656C70.7738 10.9656 72.0224 11.1994 72.5204 11.4774L71.8976 16.5836H71.6972L66.1244 14.1253C64.9118 14.2474 63.8648 16.2277 63.8648 18.0189C63.8648 20.3215 65.6228 21.6009 68.6138 21.6009H73.7978C74.1098 15.6071 77.4578 10.9656 81.6296 10.9656C82.6088 10.9656 83.777 11.1994 84.3218 11.4774L83.6546 16.5394H83.4542L78.5054 14.2013C77.3708 14.3124 76.481 15.9921 76.481 17.8281C76.481 20.3178 78.1166 21.6087 81.2762 21.6087H93.191L92.8784 23.8375V38.9603L94.6364 40.7958V40.9516H84.947V40.7958L86.738 38.8824V23.0362H79.9184V38.8884L82.2548 40.7584V40.9585H71.9732V40.7584L73.7642 38.845V23.0362H67.259V38.8884L69.5948 40.7584V40.9585H59.3595L59.3604 40.9465ZM86.471 14.0473C86.471 12.1339 87.7502 10.9656 89.8196 10.9656C91.922 10.9656 93.2126 12.1339 93.2126 14.0473C93.2126 15.9165 91.9214 17.0844 89.8196 17.0844C87.7502 17.0844 86.471 15.9165 86.471 14.0473ZM105.427 38.8884L107.185 40.7584V40.9585H97.5176V40.7584L99.2756 38.8893V24.412L97.2062 22.3432V22.1427L104.571 20.2293H104.96L105.237 23.8891H105.504C107.639 21.4308 109.942 20.2293 112.512 20.2293C115.983 20.2293 118.396 22.4884 118.396 25.6804V38.8852L120.154 40.7543V40.9544H110.454V40.7543L112.245 38.763V26.9049C112.245 24.9915 111.077 23.8237 109.207 23.8237C107.963 23.8237 106.718 24.3239 105.427 25.3364L105.427 38.8884Z" fill="white"/>
</g>
<defs>
<clipPath id="clip0_152_66">
<rect width="120" height="52" fill="white" transform="translate(0.5 0.5)"/>
</clipPath>
</defs>
</svg>
