<svg width="141" height="63" viewBox="0 0 141 63" fill="none" xmlns="http://www.w3.org/2000/svg">
<g clip-path="url(#clip0_152_55)">
<path d="M74.2835 20.4278C74.2835 22.0023 73.0151 23.2707 71.4401 23.2707C69.8658 23.2707 68.5975 22.0023 68.5975 20.4278C68.5975 18.8533 69.822 17.585 71.4401 17.585C73.0585 17.6287 74.2835 18.8971 74.2835 20.4278ZM62.5618 26.1573C62.5618 26.4197 62.5618 26.8571 62.5618 26.8571C62.5618 26.8571 61.206 25.1076 58.3194 25.1076C53.5521 25.1076 49.8346 28.7377 49.8346 33.7674C49.8346 38.7533 53.5084 42.4272 58.3194 42.4272C61.2498 42.4272 62.5618 40.634 62.5618 40.634V41.3776C62.5618 41.7274 62.8243 41.9899 63.1741 41.9899H66.7168V25.545C66.7168 25.545 63.4803 25.545 63.1741 25.545C62.8243 25.545 62.5618 25.8512 62.5618 26.1573ZM62.5618 36.6977C61.9058 37.6599 60.5937 38.4909 59.0192 38.4909C56.2201 38.4909 54.077 36.7415 54.077 33.7674C54.077 30.7934 56.2201 29.0439 59.0192 29.0439C60.55 29.0439 61.9496 29.9186 62.5618 30.8371V36.6977ZM69.341 25.545H73.5394V41.9899H69.341V25.545ZM132.059 25.1076C129.173 25.1076 127.817 26.8571 127.817 26.8571V17.6287H123.618V41.9899C123.618 41.9899 126.854 41.9899 127.16 41.9899C127.51 41.9899 127.773 41.6837 127.773 41.3776V40.634C127.773 40.634 129.128 42.4272 132.015 42.4272C136.782 42.4272 140.5 38.7533 140.5 33.7674C140.5 28.7815 136.782 25.1076 132.059 25.1076ZM131.359 38.4472C129.741 38.4472 128.473 37.6162 127.817 36.654V30.7934C128.473 29.9186 129.872 29.0002 131.359 29.0002C134.158 29.0002 136.301 30.7496 136.301 33.7237C136.301 36.6977 134.158 38.4472 131.359 38.4472ZM121.431 32.2366V42.0336H117.232V32.7177C117.232 30.0061 116.358 28.9127 113.996 28.9127C112.727 28.9127 111.415 29.5687 110.584 30.5309V41.9899H106.385V25.545H109.71C110.06 25.545 110.322 25.8512 110.322 26.1573V26.8571C111.547 25.5887 113.165 25.1076 114.783 25.1076C116.62 25.1076 118.15 25.6325 119.375 26.6821C120.862 27.9068 121.431 29.4813 121.431 32.2366ZM96.1949 25.1076C93.3088 25.1076 91.9529 26.8571 91.9529 26.8571V17.6287H87.7543V41.9899C87.7543 41.9899 90.9904 41.9899 91.2963 41.9899C91.6463 41.9899 91.9088 41.6837 91.9088 41.3776V40.634C91.9088 40.634 93.2647 42.4272 96.1515 42.4272C100.918 42.4272 104.636 38.7533 104.636 33.7674C104.68 28.7815 100.963 25.1076 96.1949 25.1076ZM95.4956 38.4472C93.8772 38.4472 92.6088 37.6162 91.9529 36.654V30.7934C92.6088 29.9186 94.0081 29.0002 95.4956 29.0002C98.2942 29.0002 100.438 30.7496 100.438 33.7237C100.438 36.6977 98.2942 38.4472 95.4956 38.4472ZM84.1241 25.1076C85.3925 25.1076 86.0484 25.3263 86.0484 25.3263V29.2189C86.0484 29.2189 82.5491 28.038 80.3623 30.5309V42.0336H76.1637V25.545C76.1637 25.545 79.4005 25.545 79.7064 25.545C80.0564 25.545 80.3189 25.8512 80.3189 26.1573V26.8571C81.1064 25.9386 82.8116 25.1076 84.1241 25.1076ZM40.5187 40.5028C40.3 39.978 40.0813 39.4094 39.8627 38.9283C39.5128 38.1411 39.1629 37.3975 38.8568 36.6977L38.813 36.654C35.7952 30.0936 32.5587 23.4457 29.1473 16.8852L29.0161 16.6228C28.6662 15.9667 28.3163 15.2669 27.9664 14.5672C27.529 13.7799 27.0917 12.9489 26.3919 12.1617C24.9924 10.4122 22.9805 9.45001 20.8374 9.45001C18.6506 9.45001 16.6824 10.4122 15.2391 12.0742C14.5831 12.8614 14.102 13.6924 13.6646 14.4797C13.3147 15.1795 12.9648 15.8793 12.615 16.5353L12.4837 16.7977C9.11607 23.3582 5.83582 30.0061 2.81801 36.5665L2.77427 36.654C2.46812 37.3538 2.11823 38.0973 1.76833 38.8846C1.54965 39.3657 1.33097 39.8905 1.11229 40.4591C0.543719 42.0773 0.368773 43.6081 0.587456 45.1826C1.06856 48.4628 3.25537 51.2182 6.27318 52.4428C7.41032 52.9239 8.59121 53.1426 9.81579 53.1426C10.1657 53.1426 10.6031 53.0989 10.9529 53.0551C12.3963 52.8802 13.8833 52.3991 15.3266 51.5681C17.1198 50.5622 18.8255 49.1189 20.7499 47.0195C22.6743 49.1189 24.4237 50.5622 26.1732 51.5681C27.6165 52.3991 29.1035 52.8802 30.5469 53.0551C30.8967 53.0989 31.3341 53.1426 31.684 53.1426C32.9086 53.1426 34.1332 52.9239 35.2266 52.4428C38.2882 51.2182 40.4313 48.4191 40.9124 45.1826C41.2622 43.6518 41.0873 42.121 40.5187 40.5028ZM20.7936 42.7771C18.4319 39.8031 16.9011 37.0039 16.3763 34.6422C16.1576 33.6362 16.1138 32.7615 16.2451 31.9743C16.3325 31.2745 16.5949 30.6621 16.9449 30.1373C17.7758 28.9564 19.1754 28.2129 20.7936 28.2129C22.4119 28.2129 23.8552 28.9127 24.6424 30.1373C24.9924 30.6621 25.2547 31.2745 25.3422 31.9743C25.4735 32.7615 25.4297 33.68 25.211 34.6422C24.6862 36.9602 23.1554 39.7593 20.7936 42.7771ZM38.2444 44.8327C37.9383 47.107 36.4075 49.0751 34.2644 49.9498C33.2148 50.3872 32.0776 50.5185 30.9405 50.3872C29.8471 50.256 28.7537 49.9061 27.6165 49.2501C26.042 48.3753 24.4675 47.0195 22.6306 45.0076C25.5171 41.465 27.2667 38.2286 27.9227 35.3419C28.2288 33.9861 28.2726 32.7615 28.1414 31.6243C27.9664 30.5309 27.5728 29.525 26.9605 28.6502C25.6046 26.6821 23.3303 25.545 20.7936 25.545C18.257 25.545 15.9827 26.7259 14.6268 28.6502C14.0145 29.525 13.6209 30.5309 13.4459 31.6243C13.271 32.7615 13.3147 34.0298 13.6646 35.3419C14.3206 38.2286 16.1138 41.5088 18.9567 45.0514C17.1636 47.0633 15.5453 48.4191 13.9708 49.2938C12.8336 49.9498 11.7402 50.2998 10.6468 50.431C9.46593 50.5622 8.32878 50.3872 7.32285 49.9936C5.17977 49.1189 3.649 47.1508 3.34284 44.8764C3.21164 43.7831 3.29911 42.6897 3.73647 41.465C3.86768 41.0276 4.08636 40.5903 4.30504 40.0654C4.6112 39.3657 4.96109 38.6222 5.31098 37.8786L5.35471 37.7912C8.37253 31.2745 11.609 24.6265 14.9767 18.1535L15.1079 17.8911C15.4578 17.2351 15.8077 16.5353 16.1576 15.8793C16.5075 15.1795 16.9011 14.5234 17.3822 13.9549C18.3007 12.9052 19.5253 12.3366 20.8811 12.3366C22.2369 12.3366 23.4615 12.9052 24.38 13.9549C24.8611 14.5234 25.2547 15.1795 25.6046 15.8793C25.9545 16.5353 26.3044 17.2351 26.6543 17.8911L26.7855 18.1535C30.1095 24.6703 33.3459 31.3182 36.3638 37.8349V37.8786C36.7136 38.5784 37.0198 39.3657 37.3697 40.0654C37.5884 40.5903 37.807 41.0276 37.9383 41.465C38.2882 42.6021 38.4194 43.6956 38.2444 44.8327Z" fill="white"/>
</g>
<defs>
<clipPath id="clip0_152_55">
<rect width="140" height="63" fill="white" transform="translate(0.5)"/>
</clipPath>
</defs>
</svg>
