<svg width="348" height="348" viewBox="0 0 348 348" fill="none" xmlns="http://www.w3.org/2000/svg">
<g filter="url(#filter0_d_316_259)">
<path d="M304 20H44C32.9543 20 24 28.9543 24 40V300C24 311.046 32.9543 320 44 320H304C315.046 320 324 311.046 324 300V40C324 28.9543 315.046 20 304 20Z" fill="url(#paint0_linear_316_259)"/>
<path d="M304 20.5H44C33.2304 20.5 24.5 29.2304 24.5 40V300C24.5 310.77 33.2304 319.5 44 319.5H304C314.77 319.5 323.5 310.77 323.5 300V40C323.5 29.2304 314.77 20.5 304 20.5Z" stroke="url(#paint1_linear_316_259)"/>
</g>
<defs>
<filter id="filter0_d_316_259" x="0" y="0" width="348" height="348" filterUnits="userSpaceOnUse" color-interpolation-filters="sRGB">
<feFlood flood-opacity="0" result="BackgroundImageFix"/>
<feColorMatrix in="SourceAlpha" type="matrix" values="0 0 0 0 0 0 0 0 0 0 0 0 0 0 0 0 0 0 127 0" result="hardAlpha"/>
<feOffset dy="4"/>
<feGaussianBlur stdDeviation="12"/>
<feComposite in2="hardAlpha" operator="out"/>
<feColorMatrix type="matrix" values="0 0 0 0 0 0 0 0 0 0 0 0 0 0 0 0 0 0 0.25 0"/>
<feBlend mode="normal" in2="BackgroundImageFix" result="effect1_dropShadow_316_259"/>
<feBlend mode="normal" in="SourceGraphic" in2="effect1_dropShadow_316_259" result="shape"/>
</filter>
<linearGradient id="paint0_linear_316_259" x1="25.8056" y1="25.8696" x2="361.346" y2="84.7408" gradientUnits="userSpaceOnUse">
<stop stop-color="white" stop-opacity="0.4"/>
<stop offset="1" stop-color="white" stop-opacity="0.1"/>
</linearGradient>
<linearGradient id="paint1_linear_316_259" x1="26.7778" y1="25.8696" x2="365.875" y2="86.7463" gradientUnits="userSpaceOnUse">
<stop stop-color="white"/>
<stop offset="1" stop-color="white" stop-opacity="0"/>
</linearGradient>
</defs>
</svg>
