<svg width="31" height="31" viewBox="0 0 31 31" fill="none" xmlns="http://www.w3.org/2000/svg">
<path d="M3.10001 7.36251C3.10001 6.72049 3.62048 6.20001 4.26251 6.20001H26.7375C27.3795 6.20001 27.9 6.72049 27.9 7.36251C27.9 8.00454 27.3795 8.52501 26.7375 8.52501H4.26251C3.62048 8.52501 3.10001 8.00454 3.10001 7.36251ZM3.10001 15.1125C3.10001 14.4705 3.62048 13.95 4.26251 13.95H26.7375C27.3795 13.95 27.9 14.4705 27.9 15.1125C27.9 15.7545 27.3795 16.275 26.7375 16.275H4.26251C3.62048 16.275 3.10001 15.7545 3.10001 15.1125ZM4.26251 21.7C3.62048 21.7 3.10001 22.2205 3.10001 22.8625C3.10001 23.5045 3.62048 24.025 4.26251 24.025H26.7375C27.3795 24.025 27.9 23.5045 27.9 22.8625C27.9 22.2205 27.3795 21.7 26.7375 21.7H4.26251Z" fill="white"/>
</svg>
