<svg width="51" height="51" viewBox="0 0 51 51" fill="none" xmlns="http://www.w3.org/2000/svg">
<path d="M13 44.5522V40.3856L15.0833 38.3022H8.83329C7.68746 38.3022 6.7069 37.8946 5.89163 37.0793C5.07635 36.2641 4.66801 35.2828 4.66663 34.1356V11.2189C4.66663 10.0731 5.07496 9.09252 5.89163 8.27725C6.70829 7.46197 7.68885 7.05363 8.83329 7.05225H42.1666C43.3125 7.05225 44.2937 7.46058 45.1104 8.27725C45.927 9.09391 46.3347 10.0745 46.3333 11.2189V34.1356C46.3333 35.2814 45.9257 36.2627 45.1104 37.0793C44.2951 37.896 43.3139 38.3036 42.1666 38.3022H35.9166L38 40.3856V44.5522H13ZM8.83329 34.1356H42.1666V11.2189H8.83329V34.1356Z" fill="white"/>
</svg>
