<svg width="17" height="16" viewBox="0 0 17 16" fill="none" xmlns="http://www.w3.org/2000/svg">
<path d="M7.51333 1.50823C7.88198 0.771656 8.93318 0.771657 9.30183 1.50824L10.8945 4.69051C11.0413 4.9837 11.3224 5.18633 11.647 5.23284L15.185 5.73979C16.0096 5.85794 16.3367 6.87339 15.7362 7.45064L13.194 9.89419C12.9543 10.1246 12.8448 10.459 12.9017 10.7865L13.5043 14.2509C13.6461 15.0659 12.7933 15.6908 12.0589 15.31L8.86783 13.6557C8.57923 13.5061 8.23593 13.5061 7.94733 13.6557L4.75631 15.31C4.02187 15.6908 3.16909 15.0659 3.31085 14.2509L3.91342 10.7865C3.97039 10.459 3.86087 10.1246 3.6212 9.89419L1.079 7.45064C0.478447 6.87339 0.805569 5.85794 1.63014 5.73979L5.16821 5.23284C5.49275 5.18633 5.77388 4.9837 5.92062 4.69051L7.51333 1.50823Z" fill="#2B2B2B"/>
</svg>
