<svg width="385" height="135" viewBox="0 0 385 135" fill="none" xmlns="http://www.w3.org/2000/svg">
<mask id="mask0_318_1585" style="mask-type:alpha" maskUnits="userSpaceOnUse" x="83" y="45" width="220" height="41">
<mask id="path-1-outside-1_318_1585" maskUnits="userSpaceOnUse" x="75" y="37" width="238" height="57" fill="black">
<rect fill="white" x="75" y="37" width="238" height="57"/>
<path d="M99.8579 85.624C97.9166 85.624 96.1139 85.2773 94.4499 84.584C92.8206 83.856 91.5033 82.7987 90.4979 81.412L91.2259 79.8V85H83.9459V45.636H91.7459V62.016L90.5499 60.456C91.4859 59.0347 92.7513 57.9427 94.3459 57.18C95.9753 56.3827 97.8299 55.984 99.9099 55.984C102.614 55.984 105.058 56.6427 107.242 57.96C109.426 59.2773 111.159 61.0627 112.442 63.316C113.725 65.5347 114.366 68.0307 114.366 70.804C114.366 73.5427 113.725 76.0387 112.442 78.292C111.194 80.5453 109.478 82.3307 107.294 83.648C105.11 84.9653 102.631 85.624 99.8579 85.624ZM98.9219 78.604C100.378 78.604 101.661 78.2747 102.77 77.616C103.879 76.9573 104.746 76.0387 105.37 74.86C105.994 73.6813 106.306 72.3293 106.306 70.804C106.306 69.2787 105.994 67.944 105.37 66.8C104.746 65.6213 103.879 64.7027 102.77 64.044C101.661 63.3507 100.378 63.004 98.9219 63.004C97.5353 63.004 96.2873 63.3333 95.1779 63.992C94.1033 64.6507 93.2539 65.5693 92.6299 66.748C92.0406 67.9267 91.7459 69.2787 91.7459 70.804C91.7459 72.3293 92.0406 73.6813 92.6299 74.86C93.2539 76.0387 94.1033 76.9573 95.1779 77.616C96.2873 78.2747 97.5353 78.604 98.9219 78.604ZM129.126 85.624C126.838 85.624 124.88 85.1387 123.25 84.168C121.656 83.1627 120.442 81.776 119.61 80.008C118.778 78.24 118.362 76.1773 118.362 73.82V56.608H126.162V73.196C126.162 74.2707 126.37 75.224 126.786 76.056C127.237 76.8533 127.861 77.4773 128.658 77.928C129.456 78.3787 130.357 78.604 131.362 78.604C132.402 78.604 133.304 78.3787 134.066 77.928C134.864 77.4773 135.47 76.8533 135.886 76.056C136.337 75.224 136.562 74.2707 136.562 73.196V56.608H144.362V85H137.082V79.384L137.498 80.632C136.84 82.3307 135.765 83.596 134.274 84.428C132.818 85.2253 131.102 85.624 129.126 85.624ZM161.191 85.624C158.071 85.624 155.35 84.896 153.027 83.44C150.739 81.9493 149.179 79.956 148.347 77.46L154.067 74.756C154.795 76.2813 155.783 77.4773 157.031 78.344C158.279 79.2107 159.666 79.644 161.191 79.644C162.3 79.644 163.15 79.4187 163.739 78.968C164.328 78.5173 164.623 77.8933 164.623 77.096C164.623 76.68 164.519 76.3333 164.311 76.056C164.103 75.744 163.791 75.4667 163.375 75.224C162.959 74.9813 162.439 74.7733 161.815 74.6L156.979 73.248C154.656 72.5893 152.871 71.532 151.623 70.076C150.375 68.5853 149.751 66.8347 149.751 64.824C149.751 63.056 150.202 61.5133 151.103 60.196C152.004 58.8787 153.27 57.856 154.899 57.128C156.528 56.3653 158.4 55.984 160.515 55.984C163.288 55.984 165.715 56.6427 167.795 57.96C169.91 59.2427 171.4 61.0627 172.267 63.42L166.495 66.124C166.079 64.9453 165.316 64.0093 164.207 63.316C163.132 62.588 161.902 62.224 160.515 62.224C159.51 62.224 158.712 62.432 158.123 62.848C157.568 63.264 157.291 63.836 157.291 64.564C157.291 64.9453 157.395 65.292 157.603 65.604C157.811 65.916 158.14 66.1933 158.591 66.436C159.076 66.6787 159.666 66.904 160.359 67.112L164.883 68.464C167.24 69.1573 169.043 70.2147 170.291 71.636C171.539 73.0227 172.163 74.7387 172.163 76.784C172.163 78.552 171.695 80.0947 170.759 81.412C169.858 82.7293 168.592 83.7693 166.963 84.532C165.334 85.26 163.41 85.624 161.191 85.624ZM176.825 85V56.608H184.625V85H176.825ZM176.825 54.06V46.26H184.625V54.06H176.825ZM190.333 85V56.608H197.613V62.224L197.197 60.976C197.855 59.2773 198.913 58.0293 200.369 57.232C201.859 56.4 203.593 55.984 205.569 55.984C207.718 55.984 209.59 56.4347 211.185 57.336C212.814 58.2373 214.079 59.5027 214.981 61.132C215.882 62.7267 216.333 64.5987 216.333 66.748V85H208.533V68.412C208.533 67.3027 208.307 66.3493 207.857 65.552C207.441 64.7547 206.834 64.1307 206.037 63.68C205.274 63.2293 204.373 63.004 203.333 63.004C202.327 63.004 201.426 63.2293 200.629 63.68C199.831 64.1307 199.207 64.7547 198.757 65.552C198.341 66.3493 198.133 67.3027 198.133 68.412V85H190.333ZM235.138 85.624C232.122 85.624 229.504 84.9653 227.286 83.648C225.067 82.296 223.351 80.4933 222.138 78.24C220.924 75.9867 220.318 73.4907 220.318 70.752C220.318 67.9093 220.942 65.3787 222.19 63.16C223.472 60.9413 225.188 59.1907 227.338 57.908C229.487 56.6253 231.914 55.984 234.618 55.984C236.871 55.984 238.864 56.348 240.598 57.076C242.331 57.7693 243.787 58.7573 244.966 60.04C246.179 61.3227 247.098 62.8133 247.722 64.512C248.346 66.176 248.658 67.996 248.658 69.972C248.658 70.5267 248.623 71.0813 248.554 71.636C248.519 72.156 248.432 72.6067 248.294 72.988H227.026V67.268H243.874L240.182 69.972C240.528 68.4813 240.511 67.164 240.13 66.02C239.748 64.8413 239.072 63.9227 238.102 63.264C237.166 62.5707 236.004 62.224 234.618 62.224C233.266 62.224 232.104 62.5533 231.134 63.212C230.163 63.8707 229.435 64.8413 228.95 66.124C228.464 67.4067 228.274 68.9667 228.378 70.804C228.239 72.3987 228.43 73.8027 228.95 75.016C229.47 76.2293 230.267 77.1827 231.342 77.876C232.416 78.5347 233.716 78.864 235.242 78.864C236.628 78.864 237.807 78.5867 238.778 78.032C239.783 77.4773 240.563 76.7147 241.118 75.744L247.358 78.708C246.803 80.0947 245.919 81.308 244.706 82.348C243.527 83.388 242.123 84.2027 240.494 84.792C238.864 85.3467 237.079 85.624 235.138 85.624ZM264.379 85.624C261.259 85.624 258.537 84.896 256.215 83.44C253.927 81.9493 252.367 79.956 251.535 77.46L257.255 74.756C257.983 76.2813 258.971 77.4773 260.219 78.344C261.467 79.2107 262.853 79.644 264.379 79.644C265.488 79.644 266.337 79.4187 266.927 78.968C267.516 78.5173 267.811 77.8933 267.811 77.096C267.811 76.68 267.707 76.3333 267.499 76.056C267.291 75.744 266.979 75.4667 266.563 75.224C266.147 74.9813 265.627 74.7733 265.003 74.6L260.167 73.248C257.844 72.5893 256.059 71.532 254.811 70.076C253.563 68.5853 252.939 66.8347 252.939 64.824C252.939 63.056 253.389 61.5133 254.291 60.196C255.192 58.8787 256.457 57.856 258.087 57.128C259.716 56.3653 261.588 55.984 263.703 55.984C266.476 55.984 268.903 56.6427 270.983 57.96C273.097 59.2427 274.588 61.0627 275.455 63.42L269.683 66.124C269.267 64.9453 268.504 64.0093 267.395 63.316C266.32 62.588 265.089 62.224 263.703 62.224C262.697 62.224 261.9 62.432 261.311 62.848C260.756 63.264 260.479 63.836 260.479 64.564C260.479 64.9453 260.583 65.292 260.791 65.604C260.999 65.916 261.328 66.1933 261.779 66.436C262.264 66.6787 262.853 66.904 263.547 67.112L268.071 68.464C270.428 69.1573 272.231 70.2147 273.479 71.636C274.727 73.0227 275.351 74.7387 275.351 76.784C275.351 78.552 274.883 80.0947 273.947 81.412C273.045 82.7293 271.78 83.7693 270.151 84.532C268.521 85.26 266.597 85.624 264.379 85.624ZM291.14 85.624C288.02 85.624 285.299 84.896 282.976 83.44C280.688 81.9493 279.128 79.956 278.296 77.46L284.016 74.756C284.744 76.2813 285.732 77.4773 286.98 78.344C288.228 79.2107 289.615 79.644 291.14 79.644C292.25 79.644 293.099 79.4187 293.688 78.968C294.278 78.5173 294.572 77.8933 294.572 77.096C294.572 76.68 294.468 76.3333 294.26 76.056C294.052 75.744 293.74 75.4667 293.324 75.224C292.908 74.9813 292.388 74.7733 291.764 74.6L286.928 73.248C284.606 72.5893 282.82 71.532 281.572 70.076C280.324 68.5853 279.7 66.8347 279.7 64.824C279.7 63.056 280.151 61.5133 281.052 60.196C281.954 58.8787 283.219 57.856 284.848 57.128C286.478 56.3653 288.35 55.984 290.464 55.984C293.238 55.984 295.664 56.6427 297.744 57.96C299.859 59.2427 301.35 61.0627 302.216 63.42L296.444 66.124C296.028 64.9453 295.266 64.0093 294.156 63.316C293.082 62.588 291.851 62.224 290.464 62.224C289.459 62.224 288.662 62.432 288.072 62.848C287.518 63.264 287.24 63.836 287.24 64.564C287.24 64.9453 287.344 65.292 287.552 65.604C287.76 65.916 288.09 66.1933 288.54 66.436C289.026 66.6787 289.615 66.904 290.308 67.112L294.832 68.464C297.19 69.1573 298.992 70.2147 300.24 71.636C301.488 73.0227 302.112 74.7387 302.112 76.784C302.112 78.552 301.644 80.0947 300.708 81.412C299.807 82.7293 298.542 83.7693 296.912 84.532C295.283 85.26 293.359 85.624 291.14 85.624Z"/>
</mask>
<path d="M99.8579 85.624C97.9166 85.624 96.1139 85.2773 94.4499 84.584C92.8206 83.856 91.5033 82.7987 90.4979 81.412L91.2259 79.8V85H83.9459V45.636H91.7459V62.016L90.5499 60.456C91.4859 59.0347 92.7513 57.9427 94.3459 57.18C95.9753 56.3827 97.8299 55.984 99.9099 55.984C102.614 55.984 105.058 56.6427 107.242 57.96C109.426 59.2773 111.159 61.0627 112.442 63.316C113.725 65.5347 114.366 68.0307 114.366 70.804C114.366 73.5427 113.725 76.0387 112.442 78.292C111.194 80.5453 109.478 82.3307 107.294 83.648C105.11 84.9653 102.631 85.624 99.8579 85.624ZM98.9219 78.604C100.378 78.604 101.661 78.2747 102.77 77.616C103.879 76.9573 104.746 76.0387 105.37 74.86C105.994 73.6813 106.306 72.3293 106.306 70.804C106.306 69.2787 105.994 67.944 105.37 66.8C104.746 65.6213 103.879 64.7027 102.77 64.044C101.661 63.3507 100.378 63.004 98.9219 63.004C97.5353 63.004 96.2873 63.3333 95.1779 63.992C94.1033 64.6507 93.2539 65.5693 92.6299 66.748C92.0406 67.9267 91.7459 69.2787 91.7459 70.804C91.7459 72.3293 92.0406 73.6813 92.6299 74.86C93.2539 76.0387 94.1033 76.9573 95.1779 77.616C96.2873 78.2747 97.5353 78.604 98.9219 78.604ZM129.126 85.624C126.838 85.624 124.88 85.1387 123.25 84.168C121.656 83.1627 120.442 81.776 119.61 80.008C118.778 78.24 118.362 76.1773 118.362 73.82V56.608H126.162V73.196C126.162 74.2707 126.37 75.224 126.786 76.056C127.237 76.8533 127.861 77.4773 128.658 77.928C129.456 78.3787 130.357 78.604 131.362 78.604C132.402 78.604 133.304 78.3787 134.066 77.928C134.864 77.4773 135.47 76.8533 135.886 76.056C136.337 75.224 136.562 74.2707 136.562 73.196V56.608H144.362V85H137.082V79.384L137.498 80.632C136.84 82.3307 135.765 83.596 134.274 84.428C132.818 85.2253 131.102 85.624 129.126 85.624ZM161.191 85.624C158.071 85.624 155.35 84.896 153.027 83.44C150.739 81.9493 149.179 79.956 148.347 77.46L154.067 74.756C154.795 76.2813 155.783 77.4773 157.031 78.344C158.279 79.2107 159.666 79.644 161.191 79.644C162.3 79.644 163.15 79.4187 163.739 78.968C164.328 78.5173 164.623 77.8933 164.623 77.096C164.623 76.68 164.519 76.3333 164.311 76.056C164.103 75.744 163.791 75.4667 163.375 75.224C162.959 74.9813 162.439 74.7733 161.815 74.6L156.979 73.248C154.656 72.5893 152.871 71.532 151.623 70.076C150.375 68.5853 149.751 66.8347 149.751 64.824C149.751 63.056 150.202 61.5133 151.103 60.196C152.004 58.8787 153.27 57.856 154.899 57.128C156.528 56.3653 158.4 55.984 160.515 55.984C163.288 55.984 165.715 56.6427 167.795 57.96C169.91 59.2427 171.4 61.0627 172.267 63.42L166.495 66.124C166.079 64.9453 165.316 64.0093 164.207 63.316C163.132 62.588 161.902 62.224 160.515 62.224C159.51 62.224 158.712 62.432 158.123 62.848C157.568 63.264 157.291 63.836 157.291 64.564C157.291 64.9453 157.395 65.292 157.603 65.604C157.811 65.916 158.14 66.1933 158.591 66.436C159.076 66.6787 159.666 66.904 160.359 67.112L164.883 68.464C167.24 69.1573 169.043 70.2147 170.291 71.636C171.539 73.0227 172.163 74.7387 172.163 76.784C172.163 78.552 171.695 80.0947 170.759 81.412C169.858 82.7293 168.592 83.7693 166.963 84.532C165.334 85.26 163.41 85.624 161.191 85.624ZM176.825 85V56.608H184.625V85H176.825ZM176.825 54.06V46.26H184.625V54.06H176.825ZM190.333 85V56.608H197.613V62.224L197.197 60.976C197.855 59.2773 198.913 58.0293 200.369 57.232C201.859 56.4 203.593 55.984 205.569 55.984C207.718 55.984 209.59 56.4347 211.185 57.336C212.814 58.2373 214.079 59.5027 214.981 61.132C215.882 62.7267 216.333 64.5987 216.333 66.748V85H208.533V68.412C208.533 67.3027 208.307 66.3493 207.857 65.552C207.441 64.7547 206.834 64.1307 206.037 63.68C205.274 63.2293 204.373 63.004 203.333 63.004C202.327 63.004 201.426 63.2293 200.629 63.68C199.831 64.1307 199.207 64.7547 198.757 65.552C198.341 66.3493 198.133 67.3027 198.133 68.412V85H190.333ZM235.138 85.624C232.122 85.624 229.504 84.9653 227.286 83.648C225.067 82.296 223.351 80.4933 222.138 78.24C220.924 75.9867 220.318 73.4907 220.318 70.752C220.318 67.9093 220.942 65.3787 222.19 63.16C223.472 60.9413 225.188 59.1907 227.338 57.908C229.487 56.6253 231.914 55.984 234.618 55.984C236.871 55.984 238.864 56.348 240.598 57.076C242.331 57.7693 243.787 58.7573 244.966 60.04C246.179 61.3227 247.098 62.8133 247.722 64.512C248.346 66.176 248.658 67.996 248.658 69.972C248.658 70.5267 248.623 71.0813 248.554 71.636C248.519 72.156 248.432 72.6067 248.294 72.988H227.026V67.268H243.874L240.182 69.972C240.528 68.4813 240.511 67.164 240.13 66.02C239.748 64.8413 239.072 63.9227 238.102 63.264C237.166 62.5707 236.004 62.224 234.618 62.224C233.266 62.224 232.104 62.5533 231.134 63.212C230.163 63.8707 229.435 64.8413 228.95 66.124C228.464 67.4067 228.274 68.9667 228.378 70.804C228.239 72.3987 228.43 73.8027 228.95 75.016C229.47 76.2293 230.267 77.1827 231.342 77.876C232.416 78.5347 233.716 78.864 235.242 78.864C236.628 78.864 237.807 78.5867 238.778 78.032C239.783 77.4773 240.563 76.7147 241.118 75.744L247.358 78.708C246.803 80.0947 245.919 81.308 244.706 82.348C243.527 83.388 242.123 84.2027 240.494 84.792C238.864 85.3467 237.079 85.624 235.138 85.624ZM264.379 85.624C261.259 85.624 258.537 84.896 256.215 83.44C253.927 81.9493 252.367 79.956 251.535 77.46L257.255 74.756C257.983 76.2813 258.971 77.4773 260.219 78.344C261.467 79.2107 262.853 79.644 264.379 79.644C265.488 79.644 266.337 79.4187 266.927 78.968C267.516 78.5173 267.811 77.8933 267.811 77.096C267.811 76.68 267.707 76.3333 267.499 76.056C267.291 75.744 266.979 75.4667 266.563 75.224C266.147 74.9813 265.627 74.7733 265.003 74.6L260.167 73.248C257.844 72.5893 256.059 71.532 254.811 70.076C253.563 68.5853 252.939 66.8347 252.939 64.824C252.939 63.056 253.389 61.5133 254.291 60.196C255.192 58.8787 256.457 57.856 258.087 57.128C259.716 56.3653 261.588 55.984 263.703 55.984C266.476 55.984 268.903 56.6427 270.983 57.96C273.097 59.2427 274.588 61.0627 275.455 63.42L269.683 66.124C269.267 64.9453 268.504 64.0093 267.395 63.316C266.32 62.588 265.089 62.224 263.703 62.224C262.697 62.224 261.9 62.432 261.311 62.848C260.756 63.264 260.479 63.836 260.479 64.564C260.479 64.9453 260.583 65.292 260.791 65.604C260.999 65.916 261.328 66.1933 261.779 66.436C262.264 66.6787 262.853 66.904 263.547 67.112L268.071 68.464C270.428 69.1573 272.231 70.2147 273.479 71.636C274.727 73.0227 275.351 74.7387 275.351 76.784C275.351 78.552 274.883 80.0947 273.947 81.412C273.045 82.7293 271.78 83.7693 270.151 84.532C268.521 85.26 266.597 85.624 264.379 85.624ZM291.14 85.624C288.02 85.624 285.299 84.896 282.976 83.44C280.688 81.9493 279.128 79.956 278.296 77.46L284.016 74.756C284.744 76.2813 285.732 77.4773 286.98 78.344C288.228 79.2107 289.615 79.644 291.14 79.644C292.25 79.644 293.099 79.4187 293.688 78.968C294.278 78.5173 294.572 77.8933 294.572 77.096C294.572 76.68 294.468 76.3333 294.26 76.056C294.052 75.744 293.74 75.4667 293.324 75.224C292.908 74.9813 292.388 74.7733 291.764 74.6L286.928 73.248C284.606 72.5893 282.82 71.532 281.572 70.076C280.324 68.5853 279.7 66.8347 279.7 64.824C279.7 63.056 280.151 61.5133 281.052 60.196C281.954 58.8787 283.219 57.856 284.848 57.128C286.478 56.3653 288.35 55.984 290.464 55.984C293.238 55.984 295.664 56.6427 297.744 57.96C299.859 59.2427 301.35 61.0627 302.216 63.42L296.444 66.124C296.028 64.9453 295.266 64.0093 294.156 63.316C293.082 62.588 291.851 62.224 290.464 62.224C289.459 62.224 288.662 62.432 288.072 62.848C287.518 63.264 287.24 63.836 287.24 64.564C287.24 64.9453 287.344 65.292 287.552 65.604C287.76 65.916 288.09 66.1933 288.54 66.436C289.026 66.6787 289.615 66.904 290.308 67.112L294.832 68.464C297.19 69.1573 298.992 70.2147 300.24 71.636C301.488 73.0227 302.112 74.7387 302.112 76.784C302.112 78.552 301.644 80.0947 300.708 81.412C299.807 82.7293 298.542 83.7693 296.912 84.532C295.283 85.26 293.359 85.624 291.14 85.624Z" fill="#18181B"/>
<path d="M94.4499 84.584L91.1864 91.8881L91.2792 91.9295L91.373 91.9686L94.4499 84.584ZM90.4979 81.412L83.207 78.1193L81.2965 82.3497L84.0211 86.1077L90.4979 81.412ZM91.2259 79.8H99.2259L83.935 76.5073L91.2259 79.8ZM91.2259 85V93H99.2259V85H91.2259ZM83.9459 85H75.9459V93H83.9459V85ZM83.9459 45.636V37.636H75.9459V45.636H83.9459ZM91.7459 45.636H99.7459V37.636H91.7459V45.636ZM91.7459 62.016L85.3971 66.8835L99.7459 85.5993V62.016H91.7459ZM90.5499 60.456L83.8686 56.0561L80.7392 60.808L84.2011 65.3235L90.5499 60.456ZM94.3459 57.18L97.7976 64.3971L97.83 64.3815L97.8624 64.3657L94.3459 57.18ZM107.242 57.96L111.374 51.1097L111.374 51.1097L107.242 57.96ZM112.442 63.316L105.489 67.2736L105.503 67.2968L105.516 67.32L112.442 63.316ZM112.442 78.292L105.489 74.3344L105.466 74.3751L105.444 74.416L112.442 78.292ZM107.294 83.648L103.162 76.7977L103.162 76.7977L107.294 83.648ZM102.77 77.616L106.854 84.4948L106.854 84.4948L102.77 77.616ZM105.37 74.86L98.2996 71.1169L98.2996 71.1169L105.37 74.86ZM105.37 66.8L98.2996 70.5431L98.3229 70.5871L98.3468 70.6308L105.37 66.8ZM102.77 64.044L98.53 70.828L98.6072 70.8763L98.6856 70.9228L102.77 64.044ZM95.1779 63.992L91.0936 57.1132L91.0453 57.1418L90.9974 57.1712L95.1779 63.992ZM92.6299 66.748L85.5596 63.0049L85.5161 63.0871L85.4745 63.1703L92.6299 66.748ZM92.6299 74.86L85.4745 78.4377L85.5161 78.5209L85.5596 78.6031L92.6299 74.86ZM95.1779 77.616L90.9974 84.4368L91.0453 84.4662L91.0936 84.4948L95.1779 77.616ZM99.8579 77.624C98.8907 77.624 98.1429 77.4561 97.5269 77.1994L91.373 91.9686C94.085 93.0986 96.9425 93.624 99.8579 93.624V77.624ZM97.7135 77.2799C97.3095 77.0994 97.1211 76.918 96.9748 76.7163L84.0211 86.1077C85.8854 88.6793 88.3317 90.6126 91.1864 91.8881L97.7135 77.2799ZM97.7889 84.7047L98.5169 83.0927L83.935 76.5073L83.207 78.1193L97.7889 84.7047ZM83.2259 79.8V85H99.2259V79.8H83.2259ZM91.2259 77H83.9459V93H91.2259V77ZM91.9459 85V45.636H75.9459V85H91.9459ZM83.9459 53.636H91.7459V37.636H83.9459V53.636ZM83.7459 45.636V62.016H99.7459V45.636H83.7459ZM98.0948 57.1485L96.8988 55.5885L84.2011 65.3235L85.3971 66.8835L98.0948 57.1485ZM97.2313 64.8559C97.3352 64.6982 97.4625 64.5573 97.7976 64.3971L90.8943 49.9629C88.04 51.328 85.6367 53.3711 83.8686 56.0561L97.2313 64.8559ZM97.8624 64.3657C98.2466 64.1777 98.8697 63.984 99.9099 63.984V47.984C96.7902 47.984 93.7039 48.5876 90.8295 49.9943L97.8624 64.3657ZM99.9099 63.984C101.249 63.984 102.249 64.2909 103.11 64.8103L111.374 51.1097C107.867 48.9944 103.979 47.984 99.9099 47.984V63.984ZM103.11 64.8103C104.102 65.4085 104.872 66.1893 105.489 67.2736L119.394 59.3584C117.446 55.936 114.75 53.1462 111.374 51.1097L103.11 64.8103ZM105.516 67.32C106.038 68.2224 106.366 69.3173 106.366 70.804H122.366C122.366 66.744 121.411 62.847 119.368 59.312L105.516 67.32ZM106.366 70.804C106.366 72.2359 106.047 73.3556 105.489 74.3344L119.394 82.2496C121.403 78.7218 122.366 74.8494 122.366 70.804H106.366ZM105.444 74.416C104.867 75.4568 104.134 76.2113 103.162 76.7977L111.426 90.4983C114.822 88.4501 117.521 85.6338 119.44 82.168L105.444 74.416ZM103.162 76.7977C102.333 77.2977 101.307 77.624 99.8579 77.624V93.624C103.956 93.624 107.887 92.633 111.426 90.4983L103.162 76.7977ZM98.9219 86.604C101.626 86.604 104.356 85.9782 106.854 84.4948L98.6856 70.7372C98.7399 70.705 98.7961 70.677 98.8514 70.6542C98.9065 70.6314 98.9528 70.617 98.9864 70.6083C99.0559 70.5905 99.0447 70.604 98.9219 70.604V86.604ZM106.854 84.4948C109.272 83.0591 111.152 81.0356 112.44 78.6031L98.2996 71.1169C98.3054 71.106 98.3455 71.0357 98.4328 70.9432C98.5213 70.8494 98.6141 70.7796 98.6856 70.7372L106.854 84.4948ZM112.44 78.6031C113.758 76.1149 114.306 73.4451 114.306 70.804H98.3059C98.3059 71.0204 98.284 71.1321 98.2768 71.1631C98.2707 71.1897 98.2737 71.1658 98.2996 71.1169L112.44 78.6031ZM114.306 70.804C114.306 68.1693 113.76 65.4743 112.393 62.9692L98.3468 70.6308C98.3232 70.5876 98.3064 70.5495 98.2953 70.5199C98.2842 70.4907 98.281 70.476 98.282 70.48C98.2838 70.4877 98.3059 70.5865 98.3059 70.804H114.306ZM112.44 63.0569C111.152 60.6244 109.272 58.6009 106.854 57.1652L98.6856 70.9228C98.6141 70.8804 98.5213 70.8106 98.4328 70.7168C98.3455 70.6243 98.3054 70.554 98.2996 70.5431L112.44 63.0569ZM107.01 57.26C104.489 55.6842 101.703 55.004 98.9219 55.004V71.004C99.0118 71.004 98.9894 71.0141 98.8887 70.9869C98.7822 70.9581 98.6533 70.9051 98.53 70.828L107.01 57.26ZM98.9219 55.004C96.2093 55.004 93.5314 55.6657 91.0936 57.1132L99.2623 70.8708C99.1786 70.9205 99.0803 70.9616 98.9872 70.9862C98.8975 71.0099 98.8667 71.004 98.9219 71.004V55.004ZM90.9974 57.1712C88.6296 58.6225 86.8134 60.6366 85.5596 63.0049L99.7002 70.4911C99.7095 70.4735 99.6844 70.5244 99.6091 70.6058C99.5319 70.6894 99.442 70.7616 99.3584 70.8128L90.9974 57.1712ZM85.4745 63.1703C84.2484 65.6225 83.7459 68.2324 83.7459 70.804H99.7459C99.7459 70.5565 99.7698 70.4123 99.7834 70.3496C99.7962 70.2909 99.8026 70.2912 99.7854 70.3257L85.4745 63.1703ZM83.7459 70.804C83.7459 73.3756 84.2484 75.9855 85.4745 78.4377L99.7854 71.2823C99.8026 71.3168 99.7962 71.3171 99.7834 71.2584C99.7698 71.1957 99.7459 71.0515 99.7459 70.804H83.7459ZM85.5596 78.6031C86.8134 80.9714 88.6296 82.9855 90.9974 84.4368L99.3584 70.7952C99.442 70.8464 99.5319 70.9186 99.6091 71.0022C99.6844 71.0836 99.7095 71.1345 99.7002 71.1169L85.5596 78.6031ZM91.0936 84.4948C93.5314 85.9423 96.2093 86.604 98.9219 86.604V70.604C98.8667 70.604 98.8975 70.5981 98.9872 70.6218C99.0803 70.6464 99.1786 70.6875 99.2623 70.7372L91.0936 84.4948ZM123.25 84.168L118.984 90.9354L119.069 90.9892L119.156 91.0408L123.25 84.168ZM119.61 80.008L112.372 83.4144L112.372 83.4144L119.61 80.008ZM118.362 56.608V48.608H110.362V56.608H118.362ZM126.162 56.608H134.162V48.608H126.162V56.608ZM126.786 76.056L119.631 79.6337L119.722 79.8155L119.822 79.9925L126.786 76.056ZM128.658 77.928L132.595 70.9635L132.595 70.9635L128.658 77.928ZM134.066 77.928L130.13 70.9635L130.063 71.0014L129.996 71.0406L134.066 77.928ZM135.886 76.056L128.852 72.2457L128.822 72.3004L128.794 72.3555L135.886 76.056ZM136.562 56.608V48.608H128.562V56.608H136.562ZM144.362 56.608H152.362V48.608H144.362V56.608ZM144.362 85V93H152.362V85H144.362ZM137.082 85H129.082V93H137.082V85ZM137.082 79.384L144.672 76.8542L129.082 79.384H137.082ZM137.498 80.632L144.957 83.5242L145.999 80.8367L145.088 78.1022L137.498 80.632ZM134.274 84.428L138.117 91.4448L138.145 91.4293L138.173 91.4136L134.274 84.428ZM129.126 77.624C127.982 77.624 127.502 77.3892 127.345 77.2952L119.156 91.0408C122.257 92.8882 125.695 93.624 129.126 93.624V77.624ZM127.517 77.4006C127.262 77.2399 127.056 77.0419 126.849 76.6016L112.372 83.4144C113.828 86.5101 116.049 89.0854 118.984 90.9354L127.517 77.4006ZM126.849 76.6016C126.611 76.0963 126.362 75.2389 126.362 73.82H110.362C110.362 77.1158 110.945 80.3837 112.372 83.4144L126.849 76.6016ZM126.362 73.82V56.608H110.362V73.82H126.362ZM118.362 64.608H126.162V48.608H118.362V64.608ZM118.162 56.608V73.196H134.162V56.608H118.162ZM118.162 73.196C118.162 75.3195 118.579 77.5302 119.631 79.6337L133.942 72.4783C134.045 72.685 134.104 72.871 134.134 73.0117C134.164 73.1484 134.162 73.2171 134.162 73.196H118.162ZM119.822 79.9925C120.988 82.0556 122.659 83.7264 124.722 84.8925L132.595 70.9635C132.802 71.0807 133.03 71.2464 133.249 71.4651C133.468 71.6839 133.634 71.9122 133.751 72.1195L119.822 79.9925ZM124.722 84.8925C126.835 86.0869 129.116 86.604 131.362 86.604V70.604C131.46 70.604 131.639 70.6155 131.873 70.6739C132.11 70.7332 132.358 70.8296 132.595 70.9635L124.722 84.8925ZM131.362 86.604C133.582 86.604 135.941 86.1126 138.136 84.8154L129.996 71.0406C130.666 70.6448 131.222 70.604 131.362 70.604V86.604ZM138.003 84.8925C140.119 83.6963 141.834 81.9503 142.979 79.7565L128.794 72.3555C128.932 72.0894 129.128 71.808 129.383 71.5454C129.638 71.2835 129.9 71.0931 130.13 70.9635L138.003 84.8925ZM142.921 79.8663C144.087 77.7134 144.562 75.4184 144.562 73.196H128.562C128.562 73.173 128.565 73.0582 128.608 72.8768C128.652 72.6909 128.729 72.472 128.852 72.2457L142.921 79.8663ZM144.562 73.196V56.608H128.562V73.196H144.562ZM136.562 64.608H144.362V48.608H136.562V64.608ZM136.362 56.608V85H152.362V56.608H136.362ZM144.362 77H137.082V93H144.362V77ZM145.082 85V79.384H129.082V85H145.082ZM129.493 81.9138L129.909 83.1618L145.088 78.1022L144.672 76.8542L129.493 81.9138ZM130.039 77.7398C130.002 77.8371 130.006 77.7875 130.101 77.6762C130.145 77.6245 130.196 77.574 130.251 77.5292C130.305 77.4847 130.35 77.4567 130.375 77.4424L138.173 91.4136C141.405 89.6097 143.674 86.8344 144.957 83.5242L130.039 77.7398ZM130.432 77.4112C130.359 77.451 130.015 77.624 129.126 77.624V93.624C132.19 93.624 135.277 92.9997 138.117 91.4448L130.432 77.4112ZM153.027 83.44L148.66 90.1429L148.719 90.1811L148.778 90.2183L153.027 83.44ZM148.347 77.46L144.928 70.2274L138.514 73.2594L140.758 79.9898L148.347 77.46ZM154.067 74.756L161.287 71.3102L157.854 64.117L150.648 67.5234L154.067 74.756ZM157.031 78.344L152.468 84.915L152.468 84.915L157.031 78.344ZM163.739 78.968L168.599 85.3229L168.599 85.3229L163.739 78.968ZM164.311 76.056L157.655 80.4936L157.778 80.6784L157.911 80.856L164.311 76.056ZM161.815 74.6L159.661 82.3046L159.674 82.3081L161.815 74.6ZM156.979 73.248L154.797 80.9445L154.811 80.9486L154.825 80.9526L156.979 73.248ZM151.623 70.076L145.489 75.2115L145.519 75.2471L145.549 75.2823L151.623 70.076ZM154.899 57.128L158.163 64.4321L158.227 64.4034L158.291 64.3735L154.899 57.128ZM167.795 57.96L163.515 64.7186L163.58 64.7599L163.646 64.8001L167.795 57.96ZM172.267 63.42L175.661 70.6645L182.309 67.55L179.776 60.6595L172.267 63.42ZM166.495 66.124L158.951 68.7866L161.891 77.1153L169.889 73.3685L166.495 66.124ZM164.207 63.316L159.72 69.9393L159.842 70.0219L159.967 70.1L164.207 63.316ZM158.123 62.848L153.51 56.3123L153.415 56.3788L153.323 56.448L158.123 62.848ZM157.603 65.604L150.947 70.0416L150.947 70.0416L157.603 65.604ZM158.591 66.436L154.798 73.4798L154.905 73.5372L155.013 73.5914L158.591 66.436ZM160.359 67.112L158.06 74.7746L158.068 74.777L160.359 67.112ZM164.883 68.464L162.592 76.129L162.609 76.134L162.626 76.1389L164.883 68.464ZM170.291 71.636L164.28 76.9144L164.312 76.9513L164.345 76.9877L170.291 71.636ZM170.759 81.412L164.238 76.7783L164.197 76.8361L164.157 76.8945L170.759 81.412ZM166.963 84.532L170.227 91.8361L170.291 91.8074L170.355 91.7775L166.963 84.532ZM161.191 77.624C159.361 77.624 158.156 77.2135 157.276 76.6617L148.778 90.2183C152.543 92.5785 156.781 93.624 161.191 93.624V77.624ZM157.394 76.7371C156.559 76.193 156.174 75.642 155.937 74.9302L140.758 79.9898C142.184 84.27 144.919 87.7057 148.66 90.1429L157.394 76.7371ZM151.766 84.6926L157.486 81.9886L150.648 67.5234L144.928 70.2274L151.766 84.6926ZM146.847 78.2018C148.105 80.8378 149.953 83.1687 152.468 84.915L161.594 71.773C161.583 71.7649 161.561 71.749 161.522 71.7019C161.48 71.6514 161.394 71.5344 161.287 71.3102L146.847 78.2018ZM152.468 84.915C155.061 86.7159 158.041 87.644 161.191 87.644V71.644C161.19 71.644 161.211 71.644 161.251 71.6499C161.291 71.6558 161.34 71.6664 161.393 71.6832C161.51 71.7198 161.582 71.7643 161.594 71.773L152.468 84.915ZM161.191 87.644C163.227 87.644 166.074 87.2537 168.599 85.3229L158.88 72.6131C160.226 71.5836 161.374 71.644 161.191 71.644V87.644ZM168.599 85.3229C171.333 83.2323 172.623 80.1696 172.623 77.096H156.623C156.623 76.4965 156.738 75.6562 157.168 74.746C157.607 73.8171 158.238 73.1041 158.88 72.6131L168.599 85.3229ZM172.623 77.096C172.623 75.3051 172.153 73.1782 170.711 71.256L157.911 80.856C156.885 79.4885 156.623 78.0549 156.623 77.096H172.623ZM170.968 71.6184C169.92 70.0472 168.585 69.0014 167.406 68.3138L159.344 82.1342C158.997 81.932 158.286 81.4408 157.655 80.4936L170.968 71.6184ZM167.406 68.3138C166.233 67.6297 165.03 67.1902 163.956 66.8919L159.674 82.3081C159.747 82.3284 159.751 82.3335 159.702 82.3138C159.654 82.2945 159.526 82.2401 159.344 82.1342L167.406 68.3138ZM163.969 66.8954L159.133 65.5434L154.825 80.9526L159.661 82.3046L163.969 66.8954ZM159.162 65.5515C158.559 65.3805 158.186 65.2029 157.975 65.0776C157.773 64.9584 157.707 64.8808 157.697 64.8697L145.549 75.2823C148.057 78.2086 151.352 79.9676 154.797 80.9445L159.162 65.5515ZM157.757 64.9405C157.731 64.9087 157.726 64.8979 157.732 64.9083C157.738 64.9192 157.747 64.9377 157.755 64.959C157.762 64.9801 157.763 64.9876 157.76 64.974C157.758 64.9594 157.751 64.9118 157.751 64.824H141.751C141.751 68.6425 142.991 72.2283 145.489 75.2115L157.757 64.9405ZM157.751 64.824C157.751 64.7221 157.758 64.6555 157.763 64.6193C157.767 64.5837 157.771 64.5739 157.768 64.5843C157.765 64.5952 157.758 64.6171 157.744 64.6453C157.731 64.6735 157.717 64.6971 157.706 64.7135L144.501 55.6785C142.592 58.4683 141.751 61.6247 141.751 64.824H157.751ZM157.706 64.7135C157.709 64.7088 157.717 64.6951 157.757 64.6629C157.801 64.6271 157.92 64.5404 158.163 64.4321L151.636 49.8239C148.821 51.0815 146.332 53.0019 144.501 55.6785L157.706 64.7135ZM158.291 64.3735C158.688 64.1875 159.369 63.984 160.515 63.984V47.984C157.432 47.984 154.369 48.5431 151.508 49.8825L158.291 64.3735ZM160.515 63.984C161.97 63.984 162.872 64.3115 163.515 64.7186L172.076 51.2014C168.558 48.9738 164.607 47.984 160.515 47.984V63.984ZM163.646 64.8001C164.185 65.127 164.507 65.4957 164.758 66.1805L179.776 60.6595C178.294 56.6296 175.634 53.3583 171.944 51.1199L163.646 64.8001ZM168.873 56.1755L163.101 58.8795L169.889 73.3685L175.661 70.6645L168.873 56.1755ZM174.039 63.4614C172.991 60.4906 171.015 58.1372 168.447 56.532L159.967 70.1C159.839 70.0202 159.627 69.8585 159.409 69.5914C159.189 69.3205 159.039 69.0344 158.951 68.7866L174.039 63.4614ZM168.694 56.6926C166.203 55.0052 163.387 54.224 160.515 54.224V70.224C160.502 70.224 160.387 70.2211 160.209 70.1685C160.027 70.1145 159.856 70.0313 159.72 69.9393L168.694 56.6926ZM160.515 54.224C158.489 54.224 155.886 54.6347 153.51 56.3123L162.737 69.3837C161.539 70.2293 160.531 70.224 160.515 70.224V54.224ZM153.323 56.448C150.639 58.461 149.291 61.4651 149.291 64.564H165.291C165.291 65.2331 165.158 66.1294 164.698 67.0792C164.231 68.042 163.571 68.7618 162.923 69.248L153.323 56.448ZM149.291 64.564C149.291 66.4963 149.847 68.392 150.947 70.0416L164.26 61.1664C164.943 62.192 165.291 63.3944 165.291 64.564H149.291ZM150.947 70.0416C152.098 71.7684 153.595 72.8319 154.798 73.4798L162.384 59.3922C162.686 59.5548 163.524 60.0636 164.26 61.1664L150.947 70.0416ZM155.013 73.5914C156.02 74.0945 157.063 74.4753 158.06 74.7746L162.658 59.4494C162.473 59.3939 162.341 59.3477 162.254 59.3146C162.166 59.281 162.143 59.2674 162.169 59.2806L155.013 73.5914ZM158.068 74.777L162.592 76.129L167.174 60.799L162.65 59.447L158.068 74.777ZM162.626 76.1389C163.285 76.3328 163.705 76.5308 163.956 76.6776C164.197 76.8189 164.275 76.9095 164.28 76.9144L176.303 66.3576C173.797 63.5042 170.523 61.784 167.14 60.7891L162.626 76.1389ZM164.345 76.9877C164.328 76.9688 164.296 76.9294 164.26 76.8706C164.225 76.8114 164.196 76.751 164.177 76.6969C164.157 76.6437 164.153 76.615 164.154 76.621C164.155 76.6284 164.163 76.6798 164.163 76.784H180.163C180.163 72.9685 178.939 69.2863 176.237 66.2843L164.345 76.9877ZM164.163 76.784C164.163 76.8727 164.157 76.9256 164.154 76.948C164.151 76.9697 164.15 76.9666 164.157 76.9446C164.163 76.9221 164.175 76.891 164.192 76.8564C164.209 76.8217 164.226 76.795 164.238 76.7783L177.281 86.0457C179.269 83.2468 180.163 80.0485 180.163 76.784H164.163ZM164.157 76.8945C164.144 76.9136 164.119 76.9467 164.054 76.9997C163.986 77.0562 163.84 77.1608 163.572 77.2865L170.355 91.7775C173.111 90.4875 175.554 88.5711 177.362 85.9295L164.157 76.8945ZM163.7 77.2279C163.315 77.3999 162.551 77.624 161.191 77.624V93.624C164.269 93.624 167.353 93.1201 170.227 91.8361L163.7 77.2279ZM176.825 85H168.825V93H176.825V85ZM176.825 56.608V48.608H168.825V56.608H176.825ZM184.625 56.608H192.625V48.608H184.625V56.608ZM184.625 85V93H192.625V85H184.625ZM176.825 54.06H168.825V62.06H176.825V54.06ZM176.825 46.26V38.26H168.825V46.26H176.825ZM184.625 46.26H192.625V38.26H184.625V46.26ZM184.625 54.06V62.06H192.625V54.06H184.625ZM184.825 85V56.608H168.825V85H184.825ZM176.825 64.608H184.625V48.608H176.825V64.608ZM176.625 56.608V85H192.625V56.608H176.625ZM184.625 77H176.825V93H184.625V77ZM184.825 54.06V46.26H168.825V54.06H184.825ZM176.825 54.26H184.625V38.26H176.825V54.26ZM176.625 46.26V54.06H192.625V46.26H176.625ZM184.625 46.06H176.825V62.06H184.625V46.06ZM190.333 85H182.333V93H190.333V85ZM190.333 56.608V48.608H182.333V56.608H190.333ZM197.613 56.608H205.613V48.608H197.613V56.608ZM197.613 62.224L190.023 64.7538L205.613 62.224H197.613ZM197.197 60.976L189.738 58.0838L188.696 60.7713L189.607 63.5058L197.197 60.976ZM200.369 57.232L204.211 64.2488L204.239 64.2333L204.268 64.2176L200.369 57.232ZM211.185 57.336L207.248 64.3005L207.28 64.3185L207.312 64.3363L211.185 57.336ZM214.981 61.132L207.98 65.0045L207.998 65.0366L208.016 65.0685L214.981 61.132ZM216.333 85V93H224.333V85H216.333ZM208.533 85H200.533V93H208.533V85ZM207.857 65.552L200.764 69.2525L200.826 69.3716L200.892 69.4885L207.857 65.552ZM206.037 63.68L201.967 70.5674L202.033 70.6066L202.1 70.6445L206.037 63.68ZM200.629 63.68L196.692 56.7155L196.692 56.7155L200.629 63.68ZM198.757 65.552L191.792 61.6155L191.726 61.7324L191.664 61.8515L198.757 65.552ZM198.133 85V93H206.133V85H198.133ZM198.333 85V56.608H182.333V85H198.333ZM190.333 64.608H197.613V48.608H190.333V64.608ZM189.613 56.608V62.224H205.613V56.608H189.613ZM205.202 59.6942L204.786 58.4462L189.607 63.5058L190.023 64.7538L205.202 59.6942ZM204.656 63.8682C204.699 63.755 204.696 63.8096 204.588 63.9373C204.536 63.998 204.473 64.0609 204.401 64.1195C204.329 64.178 204.263 64.2205 204.211 64.2488L196.526 50.2152C193.251 52.0086 191.007 54.8108 189.738 58.0838L204.656 63.8682ZM204.268 64.2176C204.39 64.1491 204.741 63.984 205.569 63.984V47.984C202.445 47.984 199.328 48.6509 196.47 50.2464L204.268 64.2176ZM205.569 63.984C206.579 63.984 207.048 64.1873 207.248 64.3005L215.121 50.3715C212.132 48.6821 208.857 47.984 205.569 47.984V63.984ZM207.312 64.3363C207.626 64.5097 207.807 64.691 207.98 65.0045L221.981 57.2595C220.352 54.3143 218.002 51.965 215.057 50.3357L207.312 64.3363ZM208.016 65.0685C208.129 65.2688 208.333 65.7375 208.333 66.748H224.333C224.333 63.4598 223.635 60.1845 221.945 57.1955L208.016 65.0685ZM208.333 66.748V85H224.333V66.748H208.333ZM216.333 77H208.533V93H216.333V77ZM216.533 85V68.412H200.533V85H216.533ZM216.533 68.412C216.533 66.2135 216.08 63.8435 214.821 61.6155L200.892 69.4885C200.534 68.8552 200.533 68.3919 200.533 68.412H216.533ZM214.949 61.8515C213.805 59.6577 212.089 57.9117 209.973 56.7155L202.1 70.6445C201.871 70.5149 201.608 70.3245 201.354 70.0626C201.098 69.8 200.903 69.5186 200.764 69.2525L214.949 61.8515ZM210.106 56.7926C207.911 55.4954 205.553 55.004 203.333 55.004V71.004C203.192 71.004 202.637 70.9632 201.967 70.5674L210.106 56.7926ZM203.333 55.004C201.086 55.004 198.805 55.5211 196.692 56.7155L204.565 70.6445C204.328 70.7784 204.08 70.8748 203.843 70.9341C203.609 70.9925 203.431 71.004 203.333 71.004V55.004ZM196.692 56.7155C194.629 57.8816 192.958 59.5524 191.792 61.6155L205.721 69.4885C205.604 69.6958 205.438 69.9241 205.22 70.1429C205.001 70.3616 204.772 70.5273 204.565 70.6445L196.692 56.7155ZM191.664 61.8515C190.529 64.0277 190.133 66.3102 190.133 68.412H206.133C206.133 68.2951 206.153 68.6709 205.849 69.2525L191.664 61.8515ZM190.133 68.412V85H206.133V68.412H190.133ZM198.133 77H190.333V93H198.133V77ZM227.286 83.648L223.123 90.4795L223.162 90.5034L223.201 90.5268L227.286 83.648ZM222.138 78.24L229.181 74.4472L229.181 74.4472L222.138 78.24ZM222.19 63.16L215.264 59.156L215.24 59.1968L215.217 59.2379L222.19 63.16ZM227.338 57.908L231.437 64.7777L231.437 64.7777L227.338 57.908ZM240.598 57.076L237.5 64.4519L237.563 64.4784L237.626 64.5038L240.598 57.076ZM244.966 60.04L239.075 65.453L239.114 65.4956L239.154 65.5376L244.966 60.04ZM247.722 64.512L240.212 67.2705L240.221 67.2958L240.231 67.321L247.722 64.512ZM248.554 71.636L240.615 70.6437L240.587 70.8732L240.571 71.1039L248.554 71.636ZM248.294 72.988V80.988H253.897L255.812 75.7219L248.294 72.988ZM227.026 72.988H219.026V80.988H227.026V72.988ZM227.026 67.268V59.268H219.026V67.268H227.026ZM243.874 67.268L248.601 73.7221L268.336 59.268H243.874V67.268ZM240.182 69.972L232.389 68.1599L227.502 89.1742L244.909 76.4261L240.182 69.972ZM240.13 66.02L232.518 68.4826L232.529 68.5162L232.54 68.5498L240.13 66.02ZM238.102 63.264L233.34 69.6925L233.473 69.7909L233.61 69.8838L238.102 63.264ZM231.134 63.212L226.642 56.5922L226.642 56.5922L231.134 63.212ZM228.95 66.124L236.432 68.9551L236.432 68.9551L228.95 66.124ZM228.378 70.804L236.347 71.497L236.397 70.9251L236.365 70.3519L228.378 70.804ZM228.95 75.016L221.596 78.1674L221.596 78.1674L228.95 75.016ZM231.342 77.876L227.005 84.5984L227.082 84.6485L227.161 84.6968L231.342 77.876ZM238.778 78.032L234.913 71.0274L234.86 71.0563L234.808 71.0861L238.778 78.032ZM241.118 75.744L244.55 68.5178L237.851 65.3358L234.172 71.7749L241.118 75.744ZM247.358 78.708L254.785 81.6791L257.575 74.7047L250.79 71.4818L247.358 78.708ZM244.706 82.348L239.499 76.2739L239.456 76.3113L239.413 76.3493L244.706 82.348ZM240.494 84.792L243.072 92.3652L243.143 92.3408L243.215 92.315L240.494 84.792ZM235.138 77.624C233.313 77.624 232.157 77.2367 231.37 76.7692L223.201 90.5268C226.851 92.694 230.93 93.624 235.138 93.624V77.624ZM231.449 76.8165C230.423 76.1918 229.711 75.43 229.181 74.4472L215.094 82.0328C216.991 85.5567 219.71 88.4002 223.123 90.4795L231.449 76.8165ZM229.181 74.4472C228.639 73.4408 228.318 72.2623 228.318 70.752H212.318C212.318 74.7191 213.209 78.5325 215.094 82.0328L229.181 74.4472ZM228.318 70.752C228.318 69.1196 228.664 67.9683 229.162 67.0821L215.217 59.2379C213.219 62.789 212.318 66.6991 212.318 70.752H228.318ZM229.115 67.164C229.733 66.0964 230.488 65.3444 231.437 64.7777L223.238 51.0383C219.889 53.0369 217.212 55.7863 215.264 59.156L229.115 67.164ZM231.437 64.7777C232.248 64.294 233.237 63.984 234.618 63.984V47.984C230.59 47.984 226.726 48.9567 223.238 51.0383L231.437 64.7777ZM234.618 63.984C236.014 63.984 236.922 64.209 237.5 64.4519L243.695 49.7001C240.807 48.487 237.728 47.984 234.618 47.984V63.984ZM237.626 64.5038C238.329 64.785 238.764 65.1142 239.075 65.453L250.856 54.627C248.81 52.4004 246.332 50.7537 243.569 49.6482L237.626 64.5038ZM239.154 65.5376C239.603 66.0119 239.953 66.5645 240.212 67.2705L255.231 61.7535C254.242 59.0621 252.755 56.6334 250.777 54.5424L239.154 65.5376ZM240.231 67.321C240.482 67.9918 240.658 68.8484 240.658 69.972H256.658C256.658 67.1436 256.209 64.3602 255.212 61.703L240.231 67.321ZM240.658 69.972C240.658 70.1924 240.644 70.4157 240.615 70.6437L256.492 72.6283C256.602 71.747 256.658 70.861 256.658 69.972H240.658ZM240.571 71.1039C240.573 71.0736 240.595 70.749 240.775 70.2541L255.812 75.7219C256.269 74.4643 256.464 73.2384 256.536 72.1681L240.571 71.1039ZM248.294 64.988H227.026V80.988H248.294V64.988ZM235.026 72.988V67.268H219.026V72.988H235.026ZM227.026 75.268H243.874V59.268H227.026V75.268ZM239.147 60.8139L235.455 63.5179L244.909 76.4261L248.601 73.7221L239.147 60.8139ZM247.974 71.7841C248.566 69.2378 248.678 66.3661 247.719 63.4902L232.54 68.5498C232.447 68.2707 232.43 68.0612 232.429 67.9713C232.428 67.8909 232.44 67.9444 232.389 68.1599L247.974 71.7841ZM247.741 63.5574C246.845 60.7863 245.124 58.3613 242.594 56.6442L233.61 69.8838C233.364 69.7172 233.109 69.4825 232.893 69.1884C232.68 68.8987 232.569 68.6404 232.518 68.4826L247.741 63.5574ZM242.863 56.8355C240.302 54.9381 237.383 54.224 234.618 54.224V70.224C234.645 70.224 234.5 70.2273 234.24 70.1498C233.967 70.0683 233.648 69.9209 233.34 69.6925L242.863 56.8355ZM234.618 54.224C231.915 54.224 229.132 54.9026 226.642 56.5922L235.626 69.8318C235.383 69.9964 235.133 70.1058 234.915 70.1675C234.707 70.2267 234.592 70.224 234.618 70.224V54.224ZM226.642 56.5922C224.088 58.3247 222.434 60.7377 221.467 63.2929L236.432 68.9551C236.442 68.9277 236.401 69.0448 236.26 69.234C236.111 69.432 235.898 69.6473 235.626 69.8318L226.642 56.5922ZM221.467 63.2929C220.475 65.9154 220.244 68.6628 220.39 71.2561L236.365 70.3519C236.304 69.2705 236.453 68.898 236.432 68.9551L221.467 63.2929ZM220.408 70.111C220.179 72.7416 220.458 75.511 221.596 78.1674L236.303 71.8646C236.347 71.9672 236.349 72.0163 236.344 71.9765C236.338 71.9308 236.323 71.7794 236.347 71.497L220.408 70.111ZM221.596 78.1674C222.722 80.7948 224.546 83.0125 227.005 84.5984L235.679 71.1536C235.798 71.2306 235.941 71.3499 236.074 71.5086C236.205 71.6656 236.275 71.7998 236.303 71.8646L221.596 78.1674ZM227.161 84.6968C229.735 86.2744 232.552 86.864 235.242 86.864V70.864C235.052 70.864 235.014 70.8435 235.087 70.862C235.169 70.8826 235.329 70.9371 235.522 71.0552L227.161 84.6968ZM235.242 86.864C237.689 86.864 240.309 86.3709 242.747 84.9779L234.808 71.0861C235.044 70.9513 235.235 70.8917 235.333 70.8687C235.424 70.8474 235.405 70.864 235.242 70.864V86.864ZM242.642 85.0366C244.897 83.7924 246.759 81.9951 248.064 79.7131L234.172 71.7749C234.253 71.6328 234.371 71.4736 234.524 71.3239C234.676 71.1753 234.817 71.0801 234.913 71.0274L242.642 85.0366ZM237.685 82.9702L243.925 85.9342L250.79 71.4818L244.55 68.5178L237.685 82.9702ZM239.93 75.7369C239.888 75.8419 239.803 76.0135 239.499 76.2739L249.912 88.4221C252.035 86.6025 253.718 84.3474 254.785 81.6791L239.93 75.7369ZM239.413 76.3493C239.061 76.6592 238.553 76.9866 237.772 77.269L243.215 92.315C245.693 91.4187 247.992 90.1167 249.999 88.3467L239.413 76.3493ZM237.915 77.2188C237.215 77.4572 236.313 77.624 235.138 77.624V93.624C237.845 93.624 240.513 93.2361 243.072 92.3652L237.915 77.2188ZM256.215 83.44L251.848 90.1429L251.906 90.1811L251.966 90.2183L256.215 83.44ZM251.535 77.46L248.116 70.2274L241.702 73.2594L243.945 79.9898L251.535 77.46ZM257.255 74.756L264.474 71.3102L261.041 64.117L253.836 67.5234L257.255 74.756ZM260.219 78.344L255.655 84.915L255.655 84.915L260.219 78.344ZM266.927 78.968L271.786 85.3229L271.786 85.3229L266.927 78.968ZM267.499 76.056L260.842 80.4936L260.965 80.6784L261.099 80.856L267.499 76.056ZM265.003 74.6L262.849 82.3046L262.861 82.3081L265.003 74.6ZM260.167 73.248L257.984 80.9445L257.998 80.9486L258.013 80.9526L260.167 73.248ZM254.811 70.076L248.677 75.2115L248.706 75.2471L248.737 75.2823L254.811 70.076ZM258.087 57.128L261.35 64.4321L261.414 64.4034L261.478 64.3735L258.087 57.128ZM270.983 57.96L266.702 64.7186L266.768 64.7599L266.834 64.8001L270.983 57.96ZM275.455 63.42L278.848 70.6645L285.497 67.55L282.963 60.6595L275.455 63.42ZM269.683 66.124L262.139 68.7866L265.078 77.1153L273.076 73.3685L269.683 66.124ZM267.395 63.316L262.908 69.9393L263.03 70.0219L263.155 70.1L267.395 63.316ZM261.311 62.848L256.697 56.3123L256.603 56.3788L256.511 56.448L261.311 62.848ZM260.791 65.604L254.134 70.0416L254.134 70.0416L260.791 65.604ZM261.779 66.436L257.986 73.4798L258.093 73.5372L258.201 73.5914L261.779 66.436ZM263.547 67.112L261.248 74.7746L261.256 74.777L263.547 67.112ZM268.071 68.464L265.78 76.129L265.797 76.134L265.813 76.1389L268.071 68.464ZM273.479 71.636L267.467 76.9144L267.499 76.9513L267.532 76.9877L273.479 71.636ZM273.947 81.412L267.425 76.7783L267.384 76.8361L267.344 76.8945L273.947 81.412ZM270.151 84.532L273.414 91.8361L273.478 91.8074L273.542 91.7775L270.151 84.532ZM264.379 77.624C262.549 77.624 261.344 77.2135 260.464 76.6617L251.966 90.2183C255.731 92.5785 259.968 93.624 264.379 93.624V77.624ZM260.582 76.7371C259.746 76.193 259.361 75.642 259.124 74.9302L243.945 79.9898C245.372 84.27 248.107 87.7057 251.848 90.1429L260.582 76.7371ZM254.954 84.6926L260.674 81.9886L253.836 67.5234L248.116 70.2274L254.954 84.6926ZM250.035 78.2018C251.293 80.8378 253.141 83.1687 255.655 84.915L264.782 71.773C264.77 71.7649 264.748 71.749 264.709 71.7019C264.668 71.6514 264.581 71.5344 264.474 71.3102L250.035 78.2018ZM255.655 84.915C258.249 86.7159 261.229 87.644 264.379 87.644V71.644C264.377 71.644 264.399 71.644 264.438 71.6499C264.478 71.6558 264.527 71.6664 264.581 71.6832C264.698 71.7198 264.769 71.7643 264.782 71.773L255.655 84.915ZM264.379 87.644C266.415 87.644 269.261 87.2537 271.786 85.3229L262.067 72.6131C263.413 71.5836 264.561 71.644 264.379 71.644V87.644ZM271.786 85.3229C274.52 83.2323 275.811 80.1696 275.811 77.096H259.811C259.811 76.4965 259.926 75.6562 260.356 74.746C260.794 73.8171 261.425 73.1041 262.067 72.6131L271.786 85.3229ZM275.811 77.096C275.811 75.3051 275.34 73.1782 273.899 71.256L261.099 80.856C260.073 79.4885 259.811 78.0549 259.811 77.096H275.811ZM274.155 71.6184C273.108 70.0472 271.772 69.0014 270.594 68.3138L262.532 82.1342C262.185 81.932 261.474 81.4408 260.842 80.4936L274.155 71.6184ZM270.594 68.3138C269.421 67.6297 268.218 67.1902 267.144 66.8919L262.861 82.3081C262.934 82.3284 262.939 82.3335 262.89 82.3138C262.841 82.2945 262.713 82.2401 262.532 82.1342L270.594 68.3138ZM267.157 66.8954L262.321 65.5434L258.013 80.9526L262.849 82.3046L267.157 66.8954ZM262.349 65.5515C261.746 65.3805 261.374 65.2029 261.162 65.0776C260.961 64.9584 260.894 64.8808 260.885 64.8697L248.737 75.2823C251.245 78.2086 254.539 79.9676 257.984 80.9445L262.349 65.5515ZM260.945 64.9405C260.918 64.9087 260.913 64.8979 260.919 64.9083C260.926 64.9192 260.935 64.9377 260.942 64.959C260.95 64.9801 260.95 64.9876 260.948 64.974C260.945 64.9594 260.939 64.9118 260.939 64.824H244.939C244.939 68.6425 246.179 72.2283 248.677 75.2115L260.945 64.9405ZM260.939 64.824C260.939 64.7221 260.945 64.6555 260.95 64.6193C260.955 64.5837 260.959 64.5739 260.956 64.5843C260.952 64.5952 260.945 64.6171 260.932 64.6453C260.918 64.6735 260.904 64.6971 260.893 64.7135L247.688 55.6785C245.779 58.4683 244.939 61.6247 244.939 64.824H260.939ZM260.893 64.7135C260.896 64.7088 260.904 64.6951 260.944 64.6629C260.989 64.6271 261.108 64.5404 261.35 64.4321L254.823 49.8239C252.009 51.0815 249.52 53.0019 247.688 55.6785L260.893 64.7135ZM261.478 64.3735C261.876 64.1875 262.556 63.984 263.703 63.984V47.984C260.62 47.984 257.556 48.5431 254.695 49.8825L261.478 64.3735ZM263.703 63.984C265.158 63.984 266.06 64.3115 266.702 64.7186L275.263 51.2014C271.746 48.9738 267.794 47.984 263.703 47.984V63.984ZM266.834 64.8001C267.373 65.127 267.694 65.4957 267.946 66.1805L282.963 60.6595C281.482 56.6296 278.822 53.3583 275.132 51.1199L266.834 64.8001ZM272.061 56.1755L266.289 58.8795L273.076 73.3685L278.848 70.6645L272.061 56.1755ZM277.227 63.4614C276.178 60.4906 274.203 58.1372 271.635 56.532L263.155 70.1C263.027 70.0202 262.814 69.8585 262.597 69.5914C262.376 69.3205 262.226 69.0344 262.139 68.7866L277.227 63.4614ZM271.881 56.6926C269.39 55.0052 266.574 54.224 263.703 54.224V70.224C263.689 70.224 263.575 70.2211 263.397 70.1685C263.214 70.1145 263.044 70.0313 262.908 69.9393L271.881 56.6926ZM263.703 54.224C261.676 54.224 259.074 54.6347 256.697 56.3123L265.924 69.3837C264.726 70.2293 263.718 70.224 263.703 70.224V54.224ZM256.511 56.448C253.827 58.461 252.479 61.4651 252.479 64.564H268.479C268.479 65.2331 268.346 66.1294 267.885 67.0792C267.418 68.042 266.759 68.7618 266.111 69.248L256.511 56.448ZM252.479 64.564C252.479 66.4963 253.034 68.392 254.134 70.0416L267.447 61.1664C268.131 62.192 268.479 63.3944 268.479 64.564H252.479ZM254.134 70.0416C255.285 71.7684 256.783 72.8319 257.986 73.4798L265.571 59.3922C265.873 59.5548 266.712 60.0636 267.447 61.1664L254.134 70.0416ZM258.201 73.5914C259.207 74.0945 260.25 74.4753 261.248 74.7746L265.845 59.4494C265.66 59.3939 265.528 59.3477 265.442 59.3146C265.354 59.281 265.33 59.2674 265.356 59.2806L258.201 73.5914ZM261.256 74.777L265.78 76.129L270.361 60.799L265.837 59.447L261.256 74.777ZM265.813 76.1389C266.472 76.3328 266.893 76.5308 267.143 76.6776C267.384 76.8189 267.463 76.9095 267.467 76.9144L279.49 66.3576C276.985 63.5042 273.711 61.784 270.328 60.7891L265.813 76.1389ZM267.532 76.9877C267.515 76.9688 267.483 76.9294 267.448 76.8706C267.412 76.8114 267.384 76.751 267.364 76.6969C267.345 76.6437 267.34 76.615 267.341 76.621C267.343 76.6284 267.351 76.6798 267.351 76.784H283.351C283.351 72.9685 282.127 69.2863 279.425 66.2843L267.532 76.9877ZM267.351 76.784C267.351 76.8727 267.345 76.9256 267.342 76.948C267.339 76.9697 267.337 76.9666 267.344 76.9446C267.351 76.9221 267.363 76.891 267.38 76.8564C267.397 76.8217 267.413 76.795 267.425 76.7783L280.468 86.0457C282.457 83.2468 283.351 80.0485 283.351 76.784H267.351ZM267.344 76.8945C267.331 76.9136 267.306 76.9467 267.242 76.9997C267.173 77.0562 267.028 77.1608 266.759 77.2865L273.542 91.7775C276.298 90.4875 278.742 88.5711 280.549 85.9295L267.344 76.8945ZM266.887 77.2279C266.502 77.3999 265.738 77.624 264.379 77.624V93.624C267.456 93.624 270.54 93.1201 273.414 91.8361L266.887 77.2279ZM282.976 83.44L278.609 90.1429L278.668 90.1811L278.727 90.2183L282.976 83.44ZM278.296 77.46L274.877 70.2274L268.463 73.2594L270.707 79.9898L278.296 77.46ZM284.016 74.756L291.236 71.3102L287.803 64.117L280.597 67.5234L284.016 74.756ZM286.98 78.344L282.417 84.915L282.417 84.915L286.98 78.344ZM293.688 78.968L298.548 85.3229L298.548 85.3229L293.688 78.968ZM294.26 76.056L287.604 80.4936L287.727 80.6784L287.86 80.856L294.26 76.056ZM291.764 74.6L289.61 82.3046L289.623 82.3081L291.764 74.6ZM286.928 73.248L284.746 80.9445L284.76 80.9486L284.774 80.9526L286.928 73.248ZM281.572 70.076L275.438 75.2115L275.468 75.2471L275.498 75.2823L281.572 70.076ZM284.848 57.128L288.112 64.4321L288.176 64.4034L288.24 64.3735L284.848 57.128ZM297.744 57.96L293.464 64.7186L293.529 64.7599L293.595 64.8001L297.744 57.96ZM302.216 63.42L305.61 70.6645L312.258 67.55L309.725 60.6595L302.216 63.42ZM296.444 66.124L288.9 68.7866L291.84 77.1153L299.838 73.3685L296.444 66.124ZM294.156 63.316L289.67 69.9393L289.791 70.0219L289.916 70.1L294.156 63.316ZM288.072 62.848L283.459 56.3123L283.365 56.3788L283.272 56.448L288.072 62.848ZM287.552 65.604L280.896 70.0416L280.896 70.0416L287.552 65.604ZM288.54 66.436L284.748 73.4798L284.854 73.5372L284.963 73.5914L288.54 66.436ZM290.308 67.112L288.01 74.7746L288.018 74.777L290.308 67.112ZM294.832 68.464L292.542 76.129L292.558 76.134L292.575 76.1389L294.832 68.464ZM300.24 71.636L294.229 76.9144L294.261 76.9513L294.294 76.9877L300.24 71.636ZM300.708 81.412L294.187 76.7783L294.146 76.8361L294.106 76.8945L300.708 81.412ZM296.912 84.532L300.176 91.8361L300.24 91.8074L300.304 91.7775L296.912 84.532ZM291.14 77.624C289.311 77.624 288.106 77.2135 287.225 76.6617L278.727 90.2183C282.492 92.5785 286.73 93.624 291.14 93.624V77.624ZM287.343 76.7371C286.508 76.193 286.123 75.642 285.886 74.9302L270.707 79.9898C272.134 84.27 274.868 87.7057 278.609 90.1429L287.343 76.7371ZM281.715 84.6926L287.435 81.9886L280.597 67.5234L274.877 70.2274L281.715 84.6926ZM276.796 78.2018C278.055 80.8378 279.903 83.1687 282.417 84.915L291.544 71.773C291.532 71.7649 291.51 71.749 291.471 71.7019C291.429 71.6514 291.343 71.5344 291.236 71.3102L276.796 78.2018ZM282.417 84.915C285.011 86.7159 287.991 87.644 291.14 87.644V71.644C291.139 71.644 291.16 71.644 291.2 71.6499C291.24 71.6558 291.289 71.6664 291.343 71.6832C291.46 71.7198 291.531 71.7643 291.544 71.773L282.417 84.915ZM291.14 87.644C293.176 87.644 296.023 87.2537 298.548 85.3229L288.829 72.6131C290.175 71.5836 291.323 71.644 291.14 71.644V87.644ZM298.548 85.3229C301.282 83.2323 302.572 80.1696 302.572 77.096H286.572C286.572 76.4965 286.688 75.6562 287.117 74.746C287.556 73.8171 288.187 73.1041 288.829 72.6131L298.548 85.3229ZM302.572 77.096C302.572 75.3051 302.102 73.1782 300.66 71.256L287.86 80.856C286.835 79.4885 286.572 78.0549 286.572 77.096H302.572ZM300.917 71.6184C299.869 70.0472 298.534 69.0014 297.355 68.3138L289.293 82.1342C288.947 81.932 288.235 81.4408 287.604 80.4936L300.917 71.6184ZM297.355 68.3138C296.183 67.6297 294.98 67.1902 293.905 66.8919L289.623 82.3081C289.696 82.3284 289.701 82.3335 289.651 82.3138C289.603 82.2945 289.475 82.2401 289.293 82.1342L297.355 68.3138ZM293.918 66.8954L289.082 65.5434L284.774 80.9526L289.61 82.3046L293.918 66.8954ZM289.111 65.5515C288.508 65.3805 288.136 65.2029 287.924 65.0776C287.723 64.9584 287.656 64.8808 287.646 64.8697L275.498 75.2823C278.006 78.2086 281.301 79.9676 284.746 80.9445L289.111 65.5515ZM287.706 64.9405C287.68 64.9087 287.675 64.8979 287.681 64.9083C287.687 64.9192 287.696 64.9377 287.704 64.959C287.711 64.9801 287.712 64.9876 287.709 64.974C287.707 64.9594 287.7 64.9118 287.7 64.824H271.7C271.7 68.6425 272.941 72.2283 275.438 75.2115L287.706 64.9405ZM287.7 64.824C287.7 64.7221 287.707 64.6555 287.712 64.6193C287.717 64.5837 287.72 64.5739 287.717 64.5843C287.714 64.5952 287.707 64.6171 287.693 64.6453C287.68 64.6735 287.666 64.6971 287.655 64.7135L274.45 55.6785C272.541 58.4683 271.7 61.6247 271.7 64.824H287.7ZM287.655 64.7135C287.658 64.7088 287.666 64.6951 287.706 64.6629C287.75 64.6271 287.869 64.5404 288.112 64.4321L281.585 49.8239C278.77 51.0815 276.281 53.0019 274.45 55.6785L287.655 64.7135ZM288.24 64.3735C288.637 64.1875 289.318 63.984 290.464 63.984V47.984C287.381 47.984 284.318 48.5431 281.457 49.8825L288.24 64.3735ZM290.464 63.984C291.919 63.984 292.821 64.3115 293.464 64.7186L302.025 51.2014C298.507 48.9738 294.556 47.984 290.464 47.984V63.984ZM293.595 64.8001C294.134 65.127 294.456 65.4957 294.708 66.1805L309.725 60.6595C308.243 56.6296 305.584 53.3583 301.893 51.1199L293.595 64.8001ZM298.823 56.1755L293.051 58.8795L299.838 73.3685L305.61 70.6645L298.823 56.1755ZM303.988 63.4614C302.94 60.4906 300.965 58.1372 298.396 56.532L289.916 70.1C289.789 70.0202 289.576 69.8585 289.358 69.5914C289.138 69.3205 288.988 69.0344 288.9 68.7866L303.988 63.4614ZM298.643 56.6926C296.152 55.0052 293.336 54.224 290.464 54.224V70.224C290.451 70.224 290.336 70.2211 290.158 70.1685C289.976 70.1145 289.805 70.0313 289.67 69.9393L298.643 56.6926ZM290.464 54.224C288.438 54.224 285.835 54.6347 283.459 56.3123L292.686 69.3837C291.488 70.2293 290.48 70.224 290.464 70.224V54.224ZM283.272 56.448C280.588 58.461 279.24 61.4651 279.24 64.564H295.24C295.24 65.2331 295.107 66.1294 294.647 67.0792C294.18 68.042 293.521 68.7618 292.872 69.248L283.272 56.448ZM279.24 64.564C279.24 66.4963 279.796 68.392 280.896 70.0416L294.209 61.1664C294.893 62.192 295.24 63.3944 295.24 64.564H279.24ZM280.896 70.0416C282.047 71.7684 283.544 72.8319 284.748 73.4798L292.333 59.3922C292.635 59.5548 293.474 60.0636 294.209 61.1664L280.896 70.0416ZM284.963 73.5914C285.969 74.0945 287.012 74.4753 288.01 74.7746L292.607 59.4494C292.422 59.3939 292.29 59.3477 292.203 59.3146C292.116 59.281 292.092 59.2674 292.118 59.2806L284.963 73.5914ZM288.018 74.777L292.542 76.129L297.123 60.799L292.599 59.447L288.018 74.777ZM292.575 76.1389C293.234 76.3328 293.655 76.5308 293.905 76.6776C294.146 76.8189 294.225 76.9095 294.229 76.9144L306.252 66.3576C303.746 63.5042 300.473 61.784 297.09 60.7891L292.575 76.1389ZM294.294 76.9877C294.277 76.9688 294.245 76.9294 294.21 76.8706C294.174 76.8114 294.146 76.751 294.126 76.6969C294.107 76.6437 294.102 76.615 294.103 76.621C294.104 76.6284 294.112 76.6798 294.112 76.784H310.112C310.112 72.9685 308.888 69.2863 306.187 66.2843L294.294 76.9877ZM294.112 76.784C294.112 76.8727 294.107 76.9256 294.103 76.948C294.1 76.9697 294.099 76.9666 294.106 76.9446C294.113 76.9221 294.124 76.891 294.141 76.8564C294.158 76.8217 294.175 76.795 294.187 76.7783L307.23 86.0457C309.218 83.2468 310.112 80.0485 310.112 76.784H294.112ZM294.106 76.8945C294.093 76.9136 294.068 76.9467 294.004 76.9997C293.935 77.0562 293.789 77.1608 293.521 77.2865L300.304 91.7775C303.06 90.4875 305.503 88.5711 307.311 85.9295L294.106 76.8945ZM293.649 77.2279C293.264 77.3999 292.5 77.624 291.14 77.624V93.624C294.218 93.624 297.302 93.1201 300.176 91.8361L293.649 77.2279Z" fill="white" mask="url(#path-1-outside-1_318_1585)"/>
</mask>
<g mask="url(#mask0_318_1585)">
<g filter="url(#filter0_f_318_1585)">
<rect width="394.042" height="33.8475" transform="matrix(1 -2.4024e-05 8.47209e-05 1 0.751099 50.8065)" fill="url(#paint0_linear_318_1585)"/>
</g>
</g>
<defs>
<filter id="filter0_f_318_1585" x="-49.2489" y="0.797058" width="494.045" height="133.857" filterUnits="userSpaceOnUse" color-interpolation-filters="sRGB">
<feFlood flood-opacity="0" result="BackgroundImageFix"/>
<feBlend mode="normal" in="SourceGraphic" in2="BackgroundImageFix" result="shape"/>
<feGaussianBlur stdDeviation="25" result="effect1_foregroundBlur_318_1585"/>
</filter>
<linearGradient id="paint0_linear_318_1585" x1="-2.15795" y1="16.9237" x2="391.452" y2="16.9237" gradientUnits="userSpaceOnUse">
<stop stop-color="#F5F8FA"/>
<stop offset="0.234375" stop-color="#174055"/>
<stop offset="0.489583" stop-color="#174055"/>
<stop offset="0.739583" stop-color="#174055"/>
<stop offset="1" stop-color="#F5F8FA"/>
</linearGradient>
</defs>
</svg>
