<svg width="16" height="16" viewBox="0 0 16 16" fill="none" xmlns="http://www.w3.org/2000/svg">
<path d="M7.47634 1.50823C7.845 0.771656 8.89619 0.771657 9.26484 1.50824L10.8576 4.69051C11.0043 4.9837 11.2854 5.18633 11.61 5.23284L15.148 5.73979C15.9726 5.85794 16.2997 6.87339 15.6992 7.45064L13.157 9.89419C12.9173 10.1246 12.8078 10.459 12.8648 10.7865L13.4673 14.2509C13.6091 15.0659 12.7563 15.6908 12.0219 15.31L8.83084 13.6557C8.54225 13.5061 8.19894 13.5061 7.91035 13.6557L4.71932 15.31C3.98488 15.6908 3.13211 15.0659 3.27387 14.2509L3.87644 10.7865C3.9334 10.459 3.82388 10.1246 3.58421 9.89419L1.04201 7.45064C0.441459 6.87339 0.768582 5.85794 1.59315 5.73979L5.13122 5.23284C5.45576 5.18633 5.7369 4.9837 5.88363 4.69051L7.47634 1.50823Z" fill="#2B2B2B"/>
</svg>
