<svg width="16" height="16" viewBox="0 0 16 16" fill="none" xmlns="http://www.w3.org/2000/svg">
<path d="M6.95779 1.50823C7.32644 0.771656 8.37764 0.771657 8.74629 1.50824L10.339 4.69051C10.4857 4.9837 10.7669 5.18633 11.0914 5.23284L14.6295 5.73979C15.4541 5.85794 15.7812 6.87339 15.1806 7.45064L12.6384 9.89419C12.3987 10.1246 12.2892 10.459 12.3462 10.7865L12.9488 14.2509C13.0905 15.0659 12.2378 15.6908 11.5033 15.31L8.31228 13.6557C8.02369 13.5061 7.68039 13.5061 7.39179 13.6557L4.20076 15.31C3.46633 15.6908 2.61355 15.0659 2.75531 14.2509L3.35788 10.7865C3.41485 10.459 3.30533 10.1246 3.06565 9.89419L0.523455 7.45064C-0.0770953 6.87339 0.250027 5.85794 1.0746 5.73979L4.61267 5.23284C4.93721 5.18633 5.21834 4.9837 5.36508 4.69051L6.95779 1.50823Z" fill="#2B2B2B"/>
</svg>
